<svg width="831" height="822" viewBox="0 0 831 822" fill="none" xmlns="http://www.w3.org/2000/svg">
<path d="M735.543 406.726C735.482 413.292 734.563 419.824 732.809 426.158C731.038 432.54 728.862 438.805 726.294 444.916C723.801 451.089 721.05 457.196 718.541 463.287C716.006 469.238 713.852 475.342 712.092 481.56C710.433 487.976 709.168 494.484 708.303 501.05C707.356 507.667 706.599 514.358 705.652 520.951C704.79 527.458 703.522 533.907 701.854 540.26C700.231 546.452 697.801 552.409 694.625 557.982C691.289 563.544 687.238 568.656 682.575 573.189C677.822 577.805 672.785 582.126 667.492 586.127C662.182 590.237 656.69 594.191 651.413 598.276C640.765 606.101 631.335 615.429 623.425 625.961C619.27 631.197 615.289 636.647 611.142 641.859C607.102 647.098 602.734 652.081 598.062 656.778C593.483 661.393 588.315 665.397 582.689 668.689C577.057 671.834 571.034 674.238 564.773 675.84C558.351 677.49 551.831 678.745 545.252 679.597C538.604 680.534 531.832 681.282 525.134 682.219C518.499 683.078 511.923 684.33 505.439 685.967C499.153 687.714 492.983 689.847 486.966 692.354C480.808 694.82 474.634 697.533 468.393 700.023C462.217 702.567 455.883 704.72 449.43 706.468C436.588 710.085 422.981 710.085 410.14 706.468C403.687 704.72 397.353 702.567 391.177 700.023C384.936 697.557 378.762 694.837 372.604 692.354C366.586 689.85 360.416 687.72 354.131 685.975C347.647 684.338 341.071 683.087 334.436 682.227C327.738 681.29 320.974 680.542 314.317 679.605C307.738 678.753 301.219 677.498 294.797 675.848C288.536 674.246 282.513 671.842 276.881 668.697C271.254 665.402 266.086 661.395 261.507 656.778C256.85 652.079 252.496 647.097 248.469 641.859C244.314 636.614 240.309 631.173 236.187 625.961C232.175 620.749 227.843 615.785 223.215 611.099C218.481 606.524 213.466 602.241 208.199 598.276C202.897 594.166 197.396 590.229 192.119 586.127C186.813 582.13 181.765 577.808 177.003 573.189C172.34 568.656 168.29 563.544 164.954 557.982C161.779 552.408 159.349 546.451 157.724 540.26C156.057 533.907 154.788 527.458 153.926 520.951C152.979 514.375 152.223 507.667 151.275 501.05C150.411 494.484 149.146 487.975 147.486 481.56C145.726 475.342 143.573 469.238 141.037 463.287C138.544 457.196 135.802 451.089 133.284 444.916C130.716 438.805 128.54 432.54 126.769 426.158C123.124 413.457 123.124 400.003 126.769 387.302C128.54 380.92 130.716 374.655 133.284 368.544C135.777 362.37 138.528 356.263 141.037 350.172C143.573 344.221 145.726 338.118 147.486 331.899C149.133 325.483 150.387 318.975 151.242 312.409C152.189 305.792 152.946 299.101 153.893 292.509C154.755 286.001 156.023 279.553 157.691 273.2C159.314 267.008 161.744 261.05 164.92 255.478C168.267 249.913 172.328 244.802 177.003 240.271C181.754 235.652 186.791 231.331 192.086 227.332C197.396 223.222 202.889 219.269 208.166 215.183C213.431 211.216 218.445 206.933 223.182 202.36C227.808 197.672 232.14 192.709 236.154 187.498C240.309 182.262 244.289 176.812 248.436 171.593C252.478 166.355 256.846 161.372 261.516 156.673C266.097 152.059 271.265 148.052 276.889 144.754C282.521 141.612 288.544 139.21 294.806 137.611C301.228 135.961 307.747 134.706 314.326 133.854C320.974 132.917 327.746 132.169 334.444 131.232C341.082 130.372 347.661 129.12 354.147 127.484C360.43 125.738 366.597 123.608 372.612 121.105C378.77 118.639 384.944 115.927 391.185 113.436C397.361 110.89 403.695 108.734 410.148 106.983C422.991 103.378 436.595 103.378 449.438 106.983C455.888 108.735 462.219 110.89 468.393 113.436C474.634 115.902 480.808 118.623 486.966 121.105C492.984 123.609 499.153 125.74 505.439 127.484C511.923 129.121 518.499 130.373 525.134 131.232C531.832 132.169 538.596 132.876 545.252 133.854C551.834 134.707 558.356 135.962 564.781 137.611C571.038 139.215 577.057 141.616 582.689 144.754C588.314 148.052 593.481 152.059 598.062 156.673C602.734 161.373 607.103 166.359 611.142 171.601C615.297 176.845 619.303 182.287 623.425 187.498C627.436 192.711 631.768 197.674 636.396 202.36C641.131 206.936 646.146 211.218 651.413 215.183C656.714 219.293 662.216 223.231 667.492 227.332C672.787 231.331 677.824 235.652 682.575 240.271C687.238 244.804 691.289 249.915 694.625 255.478C697.801 261.05 700.231 267.008 701.854 273.2C703.522 279.553 704.79 286.001 705.652 292.509C706.599 299.085 707.356 305.792 708.303 312.409C709.168 318.975 710.434 325.484 712.092 331.899C713.852 338.118 716.006 344.221 718.541 350.172C721.034 356.263 723.776 362.37 726.294 368.544C728.862 374.655 731.038 380.92 732.809 387.302C734.563 393.633 735.482 400.161 735.543 406.726Z" fill="#040400"/>
<path d="M735.543 406.726C735.482 413.292 734.563 419.824 732.809 426.158C731.038 432.54 728.862 438.805 726.294 444.916C723.801 451.089 721.05 457.196 718.541 463.287C716.006 469.238 713.852 475.342 712.092 481.56C710.433 487.976 709.168 494.484 708.303 501.05C707.356 507.667 706.599 514.358 705.652 520.951C704.79 527.458 703.522 533.907 701.854 540.26C700.231 546.452 697.801 552.409 694.625 557.982C691.289 563.544 687.238 568.656 682.575 573.189C677.822 577.805 672.785 582.126 667.492 586.127C662.182 590.237 656.69 594.191 651.413 598.276C640.765 606.101 631.335 615.429 623.425 625.961C619.27 631.197 615.289 636.647 611.142 641.859C607.102 647.098 602.734 652.081 598.062 656.778C593.483 661.393 588.315 665.397 582.689 668.689C577.057 671.834 571.034 674.238 564.773 675.84C558.351 677.49 551.831 678.745 545.252 679.597C538.604 680.534 531.832 681.282 525.134 682.219C518.499 683.078 511.923 684.33 505.439 685.967C499.153 687.714 492.983 689.847 486.966 692.354C480.808 694.82 474.634 697.533 468.393 700.023C462.217 702.567 455.883 704.72 449.43 706.468C436.588 710.085 422.981 710.085 410.14 706.468C403.687 704.72 397.353 702.567 391.177 700.023C384.936 697.557 378.762 694.837 372.604 692.354C366.586 689.85 360.416 687.72 354.131 685.975C347.647 684.338 341.071 683.087 334.436 682.227C327.738 681.29 320.974 680.542 314.317 679.605C307.738 678.753 301.219 677.498 294.797 675.848C288.536 674.246 282.513 671.842 276.881 668.697C271.254 665.402 266.086 661.395 261.507 656.778C256.85 652.079 252.496 647.097 248.469 641.859C244.314 636.614 240.309 631.173 236.187 625.961C232.175 620.749 227.843 615.785 223.215 611.099C218.481 606.524 213.466 602.241 208.199 598.276C202.897 594.166 197.396 590.229 192.119 586.127C186.813 582.13 181.765 577.808 177.003 573.189C172.34 568.656 168.29 563.544 164.954 557.982C161.779 552.408 159.349 546.451 157.724 540.26C156.057 533.907 154.788 527.458 153.926 520.951C152.979 514.375 152.223 507.667 151.275 501.05C150.411 494.484 149.146 487.975 147.486 481.56C145.726 475.342 143.573 469.238 141.037 463.287C138.544 457.196 135.802 451.089 133.284 444.916C130.716 438.805 128.54 432.54 126.769 426.158C123.124 413.457 123.124 400.003 126.769 387.302C128.54 380.92 130.716 374.655 133.284 368.544C135.777 362.37 138.528 356.263 141.037 350.172C143.573 344.221 145.726 338.118 147.486 331.899C149.133 325.483 150.387 318.975 151.242 312.409C152.189 305.792 152.946 299.101 153.893 292.509C154.755 286.001 156.023 279.553 157.691 273.2C159.314 267.008 161.744 261.05 164.92 255.478C168.267 249.913 172.328 244.802 177.003 240.271C181.754 235.652 186.791 231.331 192.086 227.332C197.396 223.222 202.889 219.269 208.166 215.183C213.431 211.216 218.445 206.933 223.182 202.36C227.808 197.672 232.14 192.709 236.154 187.498C240.309 182.262 244.289 176.812 248.436 171.593C252.478 166.355 256.846 161.372 261.516 156.673C266.097 152.059 271.265 148.052 276.889 144.754C282.521 141.612 288.544 139.21 294.806 137.611C301.228 135.961 307.747 134.706 314.326 133.854C320.974 132.917 327.746 132.169 334.444 131.232C341.082 130.372 347.661 129.12 354.147 127.484C360.43 125.738 366.597 123.608 372.612 121.105C378.77 118.639 384.944 115.927 391.185 113.436C397.361 110.89 403.695 108.734 410.148 106.983C422.991 103.378 436.595 103.378 449.438 106.983C455.888 108.735 462.219 110.89 468.393 113.436C474.634 115.902 480.808 118.623 486.966 121.105C492.984 123.609 499.153 125.74 505.439 127.484C511.923 129.121 518.499 130.373 525.134 131.232C531.832 132.169 538.596 132.876 545.252 133.854C551.834 134.707 558.356 135.962 564.781 137.611C571.038 139.215 577.057 141.616 582.689 144.754C588.314 148.052 593.481 152.059 598.062 156.673C602.734 161.373 607.103 166.359 611.142 171.601C615.297 176.845 619.303 182.287 623.425 187.498C627.436 192.711 631.768 197.674 636.396 202.36C641.131 206.936 646.146 211.218 651.413 215.183C656.714 219.293 662.216 223.231 667.492 227.332C672.787 231.331 677.824 235.652 682.575 240.271C687.238 244.804 691.289 249.915 694.625 255.478C697.801 261.05 700.231 267.008 701.854 273.2C703.522 279.553 704.79 286.001 705.652 292.509C706.599 299.085 707.356 305.792 708.303 312.409C709.168 318.975 710.434 325.484 712.092 331.899C713.852 338.118 716.006 344.221 718.541 350.172C721.034 356.263 723.776 362.37 726.294 368.544C728.862 374.655 731.038 380.92 732.809 387.302C734.563 393.633 735.482 400.161 735.543 406.726Z" stroke="#040400" stroke-width="3" stroke-miterlimit="10"/>
<path d="M622.469 248.696C619.826 248.258 617.186 247.795 614.549 247.307C611.907 246.822 609.281 246.296 606.655 245.745C604.029 245.194 601.42 244.619 598.81 244.011C596.201 243.402 593.608 242.761 591.024 242.095C589.727 241.767 588.423 241.41 587.11 241.027C585.805 240.632 584.5 240.205 583.212 239.695C581.923 239.196 580.666 238.619 579.448 237.969C578.207 237.303 577.024 236.539 575.908 235.684C574.786 234.806 573.74 233.835 572.783 232.782C571.81 231.704 570.926 230.549 570.141 229.33C569.33 228.062 568.619 226.735 568.013 225.36C567.383 223.924 566.855 222.446 566.435 220.937C565.522 217.62 565.094 214.19 565.163 210.753C565.236 207.201 565.767 203.674 566.742 200.256C567.75 196.694 569.178 193.262 570.997 190.03C572.888 186.648 575.163 183.491 577.778 180.618C580.346 177.807 583.166 175.232 586.204 172.924C589.111 170.713 592.165 168.698 595.345 166.891C598.42 165.123 601.478 163.603 604.395 162.287C607.311 160.972 610.079 159.821 612.563 158.884C615.749 157.651 618.968 156.506 622.22 155.448C625.472 154.391 628.754 153.407 632.067 152.497C635.391 151.599 638.715 150.777 642.039 150.031C645.363 149.286 648.74 148.64 652.169 148.092L650.856 147.738L649.551 147.385L648.238 147.015L646.942 146.645C645.388 146.193 643.792 145.708 642.197 145.141C640.577 144.575 638.995 143.908 637.46 143.143C635.893 142.37 634.405 141.45 633.014 140.398C631.572 139.307 630.274 138.043 629.15 136.633C627.546 134.61 626.342 132.307 625.602 129.843C624.904 127.477 624.593 125.015 624.679 122.552C624.76 120.129 625.163 117.728 625.876 115.409C626.545 113.189 627.486 111.058 628.676 109.063C629.856 107.12 631.22 105.293 632.748 103.605C634.235 101.963 635.844 100.433 637.56 99.0263C639.228 97.6638 640.964 96.3854 642.762 95.1958C644.524 94.0286 646.294 92.9518 648.014 91.9078C656.029 87.2545 664.447 83.3153 673.168 80.1368C690.726 73.7554 709.252 70.3726 727.956 70.133C737.253 70.003 746.544 70.6879 755.72 72.1798L756.077 72.2374L756.443 72.2949L756.8 72.3607L757.157 72.4182C758.388 72.6278 759.502 73.2664 760.298 74.2184C760.693 74.673 760.998 75.1973 761.196 75.7637C761.393 76.3455 761.469 76.9605 761.42 77.5721C761.365 78.257 761.167 78.9231 760.839 79.5285C760.512 80.1078 760.067 80.6142 759.534 81.0163C759.013 81.4065 758.416 81.6863 757.781 81.8383C757.116 82.0087 756.422 82.0395 755.745 81.9287H755.695C746.951 80.4113 738.088 79.6767 729.211 79.734C711.385 79.8369 693.712 82.9906 676.974 89.0555C668.65 92.0792 660.618 95.8372 652.975 100.284C651.521 101.106 650.033 102.035 648.554 103.005C647.075 103.975 645.612 105.019 644.216 106.145C642.815 107.259 641.501 108.477 640.285 109.786C639.076 111.085 638.001 112.5 637.078 114.011C636.35 115.242 635.762 116.549 635.324 117.908C634.869 119.329 634.59 120.801 634.493 122.289C634.384 123.772 634.516 125.262 634.884 126.703C635.254 128.153 635.925 129.51 636.853 130.69C637.585 131.59 638.441 132.384 639.396 133.049C640.396 133.749 641.459 134.357 642.571 134.866C643.724 135.398 644.906 135.867 646.111 136.271C647.316 136.69 648.529 137.052 649.717 137.397C652.847 138.307 656.005 139.148 659.191 139.921C662.376 140.694 665.573 141.398 668.78 142.033C671.988 142.675 675.221 143.242 678.453 143.735C681.686 144.228 684.935 144.664 688.193 145.017C688.843 145.087 689.472 145.283 690.046 145.593C690.601 145.894 691.094 146.295 691.5 146.776C692.338 147.761 692.761 149.026 692.68 150.311C692.639 150.956 692.473 151.586 692.19 152.169C691.911 152.731 691.531 153.238 691.068 153.665C690.606 154.095 690.064 154.433 689.472 154.659C688.864 154.896 688.215 155.013 687.561 155.005C681.495 154.939 675.404 155.169 669.337 155.679C663.271 156.188 657.205 156.994 651.205 158.079C645.205 159.164 639.247 160.545 633.388 162.148C627.53 163.751 621.754 165.699 616.112 167.902C612.53 169.291 609.231 170.705 606.181 172.176C603.296 173.546 600.486 175.066 597.763 176.73C595.323 178.218 592.985 179.866 590.766 181.662C588.716 183.319 586.797 185.127 585.024 187.071C582.962 189.337 581.154 191.818 579.631 194.469C578.186 196.991 577.04 199.669 576.215 202.45C575.428 205.085 574.99 207.809 574.911 210.555C574.828 213.184 575.142 215.81 575.841 218.348C576.117 219.356 576.466 220.342 576.889 221.299C577.284 222.214 577.748 223.099 578.276 223.946C578.768 224.747 579.324 225.508 579.938 226.223C580.533 226.895 581.19 227.511 581.899 228.064C582.679 228.663 583.513 229.189 584.392 229.634C585.302 230.102 586.24 230.514 587.201 230.867C588.182 231.237 589.204 231.566 590.259 231.87C591.315 232.174 592.387 232.462 593.475 232.741C597.409 233.749 601.367 234.695 605.35 235.577C609.334 236.459 613.333 237.265 617.35 237.994C621.366 238.733 625.391 239.402 629.424 239.999C633.455 240.591 637.502 241.117 641.54 241.561C642.231 241.637 642.897 241.859 643.493 242.211C644.064 242.548 644.562 242.995 644.956 243.526C645.349 244.063 645.632 244.672 645.787 245.318C645.932 245.998 645.932 246.701 645.787 247.381C645.655 247.971 645.407 248.53 645.055 249.025C644.711 249.512 644.281 249.932 643.784 250.266C643.278 250.603 642.715 250.848 642.122 250.989C641.52 251.142 640.895 251.184 640.277 251.113C638.792 250.948 637.305 250.773 635.815 250.587C634.336 250.406 632.848 250.209 631.369 250.003C629.89 249.798 628.402 249.584 626.915 249.362C625.427 249.14 623.948 248.943 622.469 248.696Z" fill="#FC762B" stroke="#070707" stroke-width="3" stroke-miterlimit="10" stroke-linecap="round"/>
<path d="M245.627 751.883C245.368 751.882 245.11 751.86 244.854 751.818C244.601 751.768 244.351 751.703 244.106 751.62C243.856 751.528 243.614 751.415 243.383 751.283C242.626 750.855 242.024 750.203 241.663 749.417C241.42 748.901 241.282 748.342 241.256 747.773C241.192 746.58 241.584 745.407 242.353 744.485C247.54 738.346 252.156 731.757 256.147 724.799C264.18 710.805 269.715 695.548 272.51 679.695C273.899 671.825 274.57 663.847 274.513 655.857C274.513 654.337 274.463 652.75 274.363 651.147C274.263 649.544 274.097 647.925 273.831 646.322C273.574 644.714 273.202 643.127 272.718 641.571C272.227 640.031 271.581 638.544 270.79 637.132C270.148 635.994 269.372 634.934 268.479 633.976C267.555 632.959 266.506 632.062 265.355 631.304C264.217 630.541 262.963 629.964 261.64 629.594C260.312 629.222 258.92 629.127 257.552 629.315C256.497 629.474 255.471 629.778 254.502 630.219C253.485 630.68 252.511 631.23 251.594 631.863C250.643 632.525 249.727 633.236 248.851 633.992C247.97 634.748 247.114 635.529 246.3 636.302C244.14 638.341 242.02 640.412 239.951 642.566C237.882 644.719 235.846 646.889 233.868 649.142C231.891 651.394 229.963 653.63 228.051 655.94C226.14 658.249 224.345 660.6 222.575 662.984C222.22 663.462 221.774 663.867 221.262 664.176C220.766 664.472 220.22 664.675 219.65 664.776C218.479 664.977 217.275 664.727 216.284 664.077C215.786 663.749 215.355 663.331 215.013 662.844C214.69 662.37 214.459 661.84 214.332 661.283C214.066 660.136 214.256 658.932 214.863 657.921C217.689 653.202 220.29 648.328 222.658 643.338C225.026 638.349 227.154 633.236 229.032 628.041C230.91 622.846 232.547 617.56 233.918 612.217C235.289 606.874 236.411 601.49 237.242 596.073C237.774 592.629 238.148 589.39 238.364 586.333C238.582 583.45 238.646 580.558 238.555 577.669C238.47 575.074 238.217 572.488 237.799 569.926C237.406 567.563 236.834 565.233 236.087 562.955C235.035 559.924 233.552 557.056 231.683 554.439C229.666 551.56 227.268 548.961 224.553 546.712C221.919 544.492 218.893 542.773 215.628 541.64C212.49 540.55 209.105 540.362 205.864 541.098C203.944 541.579 202.133 542.416 200.529 543.564C198.819 544.779 197.233 546.156 195.792 547.674C194.296 549.211 192.892 550.863 191.537 552.466C190.183 554.069 188.903 555.623 187.656 556.963C185.801 558.968 183.972 560.996 182.172 563.045C180.371 565.095 178.599 567.169 176.853 569.268C175.1 571.364 173.388 573.485 171.693 575.622C169.998 577.759 168.369 579.929 166.707 582.116C166.028 583.016 165.052 583.653 163.948 583.916C163.404 584.044 162.84 584.072 162.286 583.998C161.724 583.921 161.184 583.731 160.699 583.439C160.148 583.116 159.674 582.679 159.311 582.157C158.962 581.664 158.721 581.104 158.605 580.513C158.48 579.922 158.48 579.312 158.605 578.721C158.735 578.11 158.999 577.535 159.377 577.036C161.649 573.994 163.978 570.98 166.366 567.994C168.754 565.007 171.194 562.075 173.687 559.198C176.18 556.316 178.726 553.475 181.324 550.674C183.922 547.874 186.562 545.134 189.244 542.454C190.075 541.632 190.98 540.728 191.895 539.881C192.809 539.035 193.748 538.237 194.737 537.415C195.724 536.628 196.762 535.906 197.844 535.254C198.944 534.586 200.098 534.008 201.293 533.527C202.507 533.046 203.761 532.672 205.041 532.409C206.349 532.136 207.678 531.971 209.013 531.916C210.4 531.86 211.789 531.909 213.168 532.064C214.607 532.237 216.032 532.512 217.431 532.886C220.504 533.686 223.445 534.918 226.165 536.544C228.998 538.202 231.607 540.21 233.926 542.52C236.316 544.941 238.41 547.631 240.167 550.535C242.009 553.563 243.495 556.79 244.597 560.152C245.672 563.449 246.445 566.836 246.907 570.271C247.349 573.557 247.566 576.869 247.555 580.184C247.555 583.406 247.38 586.497 247.106 589.382C246.832 592.267 246.458 594.955 246.092 597.339C245.616 600.386 245.062 603.43 244.43 606.472C243.799 609.513 243.081 612.527 242.278 615.514C241.486 618.522 240.616 621.509 239.669 624.473C238.721 627.438 237.696 630.378 236.594 633.293L237.475 632.43L238.356 631.608L239.245 630.786L240.142 629.964C241.206 628.962 242.328 627.934 243.516 626.939C244.713 625.931 245.97 624.995 247.281 624.136C248.618 623.265 250.034 622.52 251.51 621.909C253.042 621.28 254.647 620.844 256.289 620.61C258.64 620.279 261.034 620.39 263.344 620.939C265.558 621.475 267.673 622.354 269.61 623.545C271.509 624.717 273.247 626.129 274.778 627.745C276.248 629.289 277.523 631.003 278.576 632.85C279.594 634.66 280.429 636.565 281.069 638.538C281.704 640.45 282.193 642.406 282.532 644.39C282.861 646.32 283.091 648.266 283.221 650.218C283.354 652.142 283.404 654.016 283.421 655.825C283.48 664.365 282.762 672.893 281.277 681.307C278.29 698.224 272.369 714.504 263.776 729.426C259.508 736.847 254.572 743.871 249.026 750.412C248.814 750.668 248.571 750.897 248.303 751.094C248.044 751.287 247.766 751.453 247.472 751.588C247.182 751.721 246.878 751.823 246.566 751.892C246.254 751.921 245.939 751.918 245.627 751.883Z" fill="url(#paint0_linear_2_52)" stroke="black" stroke-width="3" stroke-miterlimit="10" stroke-linecap="round"/>
<path d="M368.482 663.091L359.665 678.989L350.857 694.886L342.04 710.783L333.223 726.681L345.97 724.051L358.718 721.42L371.465 718.79L384.213 716.159L380.282 702.892L376.343 689.625L372.413 676.358L368.482 663.091Z" fill="#F6C34C" stroke="#070707" stroke-width="3" stroke-miterlimit="10" stroke-linecap="round"/>
<path d="M375.371 268.794C375.358 275.004 373.013 280.988 368.792 285.585C364.572 290.182 358.775 293.065 352.528 293.674C346.28 294.284 340.026 292.576 334.979 288.883C329.931 285.19 326.451 279.774 325.212 273.686C323.972 267.598 325.063 261.272 328.272 255.934C331.481 250.597 336.58 246.628 342.579 244.799C348.578 242.969 355.051 243.408 360.741 246.031C366.432 248.654 370.935 253.275 373.377 258.996C374.698 262.097 375.376 265.429 375.371 268.794Z" fill="#DBCAF4" stroke="black" stroke-width="3" stroke-miterlimit="10" stroke-linecap="round"/>
<path d="M745.457 244.471L726.826 254.919L708.195 265.366L689.564 275.814L670.933 286.253C672.944 290.133 674.958 294.007 676.974 297.876C678.991 301.745 681.004 305.617 683.015 309.491L689.057 321.114L695.106 332.737C699.3 325.378 703.494 318.021 707.688 310.667L720.278 288.604L732.867 266.534L745.457 244.471Z" fill="url(#paint1_linear_2_52)" stroke="black" stroke-width="3" stroke-miterlimit="10" stroke-linecap="round"/>
<path d="M388.974 211.723L404.207 196.598L419.431 181.465L434.663 166.34L449.887 151.248C454.008 157.256 456.878 164.015 458.33 171.132C459.65 177.615 459.692 184.288 458.454 190.786C457.329 196.827 454.99 202.582 451.574 207.711C448.384 212.535 444.076 216.537 439.009 219.384C435.359 221.351 431.387 222.667 427.275 223.272C422.993 223.901 418.638 223.882 414.362 223.214C409.835 222.519 405.425 221.213 401.257 219.334C396.841 217.345 392.711 214.785 388.974 211.723Z" fill="url(#paint2_linear_2_52)" stroke="black" stroke-width="3" stroke-miterlimit="10" stroke-linecap="round"/>
<path d="M290.393 182.879L280.704 168.748L271.022 154.61L261.333 140.48L251.643 126.35C249.528 123.269 248.048 119.807 247.287 116.16C246.526 112.513 246.499 108.753 247.208 105.096C247.918 101.439 249.349 97.9565 251.421 94.8472C253.492 91.7379 256.163 89.0631 259.28 86.9758C262.394 84.8835 265.895 83.4191 269.582 82.6663C273.269 81.9136 277.069 81.8873 280.766 82.5889C284.463 83.2905 287.984 84.7063 291.128 86.7553C294.271 88.8043 296.975 91.4462 299.085 94.53L308.775 108.66L318.464 122.79L328.154 136.921L337.835 151.051C339.95 154.132 341.43 157.595 342.191 161.243C342.951 164.89 342.976 168.65 342.264 172.308C341.556 175.959 340.127 179.435 338.058 182.539C335.988 185.642 333.32 188.311 330.206 190.392C327.091 192.484 323.59 193.949 319.903 194.702C316.215 195.454 312.414 195.481 308.716 194.779C305.019 194.078 301.497 192.662 298.353 190.613C295.209 188.564 292.504 185.921 290.393 182.837V182.879Z" fill="url(#paint3_linear_2_52)" stroke="black" stroke-width="3" stroke-miterlimit="10" stroke-linecap="round"/>
<path d="M330.032 619.467L324.547 620.043L319.054 620.618L313.561 621.194L308.077 621.769L310.561 617.692L313.046 613.615L315.539 609.529L318.024 605.452L310.761 603.504L303.506 601.556L296.251 599.608L288.997 597.668L295.612 595.177L302.235 592.687L308.849 590.196L315.473 587.705L309.315 582.42L303.165 577.126L297.008 571.841L290.858 566.555L299.16 567.533L307.462 568.52L315.772 569.506L324.073 570.484L323.367 565.922L322.661 561.36L321.946 556.79L321.24 552.228L325.976 555.171L330.713 558.105L335.441 561.048L340.178 563.991L343.735 556.124L347.3 548.266L350.856 540.407L354.413 532.549L355.319 541.172L356.225 549.795L357.131 558.418L358.036 567.049L364.684 562.873L371.332 558.705L377.98 554.538L384.628 550.37L381.429 557.612L378.221 564.854L375.022 572.096L371.823 579.346L377.606 580.973L383.39 582.601L389.166 584.228L394.949 585.856L389.839 588.864L384.72 591.865L379.609 594.873L374.49 597.874L379.202 604.606L383.914 611.338L388.625 618.062L393.337 624.794L385.7 622.016L378.055 619.237L370.418 616.467L362.773 613.689L363.13 621.407L363.488 629.134L363.845 636.853L364.202 644.571L359.615 638.308L355.028 632.044L350.441 625.78L345.862 619.508L341.707 627.86L337.552 636.212L333.405 644.563L329.25 652.906L329.45 644.547L329.641 636.187L329.841 627.827L330.032 619.467Z" fill="url(#paint4_linear_2_52)" stroke="black" stroke-width="3" stroke-miterlimit="10" stroke-linecap="round"/>
<path d="M728.621 190.737L725.255 190.112L721.898 189.479L718.532 188.854L715.175 188.23L717.386 186.249L719.596 184.268L721.807 182.287L724.017 180.306L720.07 177.864L716.114 175.431L712.159 172.998L708.211 170.565L712.582 170.253L716.954 169.948L721.333 169.636L725.704 169.332L723.012 165.107L720.319 160.882L717.618 156.657L714.926 152.44L719.671 154.487L724.424 156.533L729.169 158.588L733.914 160.635L734.321 157.799L734.72 154.972L735.128 152.136L735.526 149.3L737.812 151.881L740.089 154.462L742.366 157.043L744.642 159.624L748.174 155.588L751.698 151.552L755.229 147.516L758.753 143.488L757.739 148.757L756.717 154.035L755.695 159.312L754.681 164.589L759.376 163.29L764.071 161.983L768.766 160.693L773.462 159.386L770.254 163.118L767.055 166.85L763.847 170.581L760.639 174.313L763.78 176.303L766.913 178.284L770.046 180.273L773.187 182.262L769.606 183.142L766.032 184.021L762.459 184.901L758.878 185.78L760.465 190.597L762.044 195.422L763.623 200.247L765.201 205.064L761.171 202.072L757.141 199.08L753.11 196.08L749.08 193.088L747.9 197.732L746.72 202.368L745.532 207.012L744.352 211.657L742.764 207.136L741.177 202.607L739.582 198.086L737.994 193.556L734.022 197.773L730.058 201.998L726.086 206.215L722.122 210.432L723.743 205.508L725.372 200.584L726.992 195.661L728.621 190.737Z" fill="url(#paint5_linear_2_52)" stroke="black" stroke-width="3" stroke-miterlimit="10" stroke-linecap="round"/>
<path d="M713.53 356.501L712.907 356.715L712.175 356.97L711.344 357.282L710.422 357.644L707.837 358.688C707.048 359.025 706.308 359.354 705.61 359.691C704.912 360.028 704.248 360.389 703.599 360.784C702.942 361.184 702.309 361.623 701.705 362.099C701.023 362.625 700.516 363.028 700.109 363.332C699.702 363.636 699.419 363.858 699.187 364.014C699.014 364.14 698.83 364.25 698.638 364.343C698.476 364.415 698.309 364.478 698.14 364.532C697.212 364.844 696.229 364.961 695.254 364.876C694.278 364.791 693.331 364.506 692.472 364.039C690.562 362.994 688.87 361.599 687.486 359.929C685.981 358.17 684.612 356.301 683.389 354.34C682.201 352.465 681.196 350.715 680.423 349.408C678.386 345.998 676.112 342.732 673.617 339.634C671.257 336.721 668.628 334.033 665.764 331.603C662.909 329.201 659.8 327.112 656.49 325.372C652.938 323.514 649.201 322.027 645.338 320.933C641.398 319.793 637.371 318.969 633.297 318.467C629.184 317.969 625.037 317.815 620.898 318.007C616.763 318.202 612.655 318.789 608.633 319.758C604.639 320.727 600.766 322.127 597.082 323.934C591.276 326.839 586.078 330.802 581.758 335.614C577.532 340.326 574.022 345.62 571.337 351.331C568.701 356.9 566.711 362.746 565.404 368.757C564.174 374.271 563.533 379.897 563.493 385.543C563.493 398.695 567.199 411.477 573.531 423.281C580.111 435.27 588.784 446.012 599.151 455.01C609.317 463.988 620.877 471.29 633.388 476.637C645.454 481.717 657.786 484.438 669.213 484.125C675.022 483.864 680.807 483.224 686.531 482.21C692.821 481.166 699.328 479.826 705.22 478.511C711.112 477.196 716.372 475.889 720.178 474.919C723.984 473.949 726.294 473.275 726.294 473.275C726.294 473.275 726.186 472.181 725.995 470.348C725.804 468.515 725.529 465.934 725.222 462.95C724.915 459.967 724.557 456.629 724.2 453.243C723.843 449.856 723.485 446.428 723.153 443.321C722.795 440.033 722.48 437.049 722.172 434.279C721.865 431.509 721.574 428.846 721.275 426.149C720.976 423.453 720.668 420.716 720.327 417.699C719.987 414.683 719.621 411.395 719.197 407.63C718.854 404.594 718.477 401.235 718.067 397.552C717.652 393.878 717.236 389.883 716.737 385.6C716.239 381.318 715.749 376.731 715.217 371.873C714.685 367.015 714.12 361.902 713.53 356.501Z" fill="#D87D61" stroke="black" stroke-width="3" stroke-miterlimit="10" stroke-linecap="round"/>
<path d="M581.06 378.326C580.121 373.928 579.398 369.448 578.8 364.623C578.202 359.798 577.778 354.619 577.437 348.816C577.096 343.012 576.83 336.576 576.606 329.244C576.382 321.912 576.182 313.675 575.958 304.272C575.847 299.69 575.769 295.323 575.725 291.169C575.667 287.059 575.642 283.105 575.642 279.439C575.642 275.773 575.642 272.361 575.642 269.23C575.642 266.098 575.7 263.246 575.742 260.706C575.127 258.634 574.573 256.65 574.08 254.754C573.573 252.855 573.124 251.047 572.717 249.329C572.31 247.611 571.952 245.984 571.637 244.471C571.321 242.959 571.038 241.528 570.806 240.221C570.598 239.128 570.415 238.092 570.249 237.106C570.083 236.12 569.925 235.174 569.783 234.262C569.642 233.349 569.534 232.47 569.426 231.599C569.318 230.727 569.243 229.872 569.177 229.026C569.094 227.924 569.019 226.814 568.961 225.738C568.903 224.661 568.861 223.526 568.836 222.45C568.811 221.373 568.836 220.238 568.836 219.162C568.836 218.085 568.836 216.95 568.886 215.874C568.886 215.052 568.886 213.876 568.944 212.586C568.984 211.205 569.142 209.83 569.418 208.476C569.626 207.266 570.153 206.131 570.947 205.188C571.358 204.776 571.874 204.482 572.44 204.337C573.006 204.192 573.602 204.202 574.163 204.366C574.847 204.512 575.473 204.852 575.966 205.344C576.485 205.858 576.907 206.459 577.213 207.119C577.534 207.797 577.776 208.508 577.936 209.24C578.08 209.905 578.152 210.583 578.152 211.262C578.276 213.572 578.484 215.561 578.742 217.271C578.954 218.741 579.26 220.196 579.656 221.628C579.94 222.642 580.316 223.63 580.778 224.579C581.095 225.235 581.498 225.849 581.974 226.403L582.116 226.543L582.273 226.675L582.448 226.798L582.639 226.913C582.982 227.101 583.348 227.245 583.728 227.341C584.106 227.43 584.494 227.474 584.883 227.472C585.272 227.47 585.66 227.423 586.038 227.332C586.421 227.233 586.791 227.092 587.143 226.913L587.284 226.839L587.426 226.757L587.567 226.675L587.708 226.593C588.554 226.057 589.294 225.375 589.894 224.579C590.479 223.791 590.959 222.931 591.323 222.022C591.692 221.111 591.992 220.174 592.22 219.219C592.453 218.282 592.636 217.337 592.81 216.457C592.985 215.578 593.135 214.509 593.234 213.654C593.334 212.799 593.384 212.01 593.417 211.386C593.45 210.761 593.417 210.21 593.417 209.832C593.417 209.454 593.417 209.224 593.417 209.183C593.351 207.539 593.29 205.752 593.234 203.823C593.176 201.891 593.126 199.795 593.076 197.551C593.027 195.307 592.968 192.907 592.919 190.359C592.869 187.811 592.81 185.098 592.761 182.237C592.632 181.281 592.609 180.313 592.694 179.352C592.767 178.475 592.952 177.611 593.243 176.779C593.507 176.02 593.892 175.307 594.381 174.667C594.834 174.071 595.399 173.566 596.043 173.179L596.508 172.941C596.698 172.853 596.892 172.776 597.09 172.71C597.316 172.637 597.547 172.577 597.78 172.53C598.054 172.474 598.332 172.438 598.611 172.423C598.611 172.423 598.611 172.267 598.611 172.02C598.645 171.68 598.701 171.342 598.777 171.009C598.876 170.565 599.015 170.13 599.193 169.71C599.39 169.253 599.65 168.824 599.965 168.436C600.005 168.383 600.05 168.334 600.098 168.288L600.373 168.025C600.489 167.926 600.622 167.811 600.78 167.696C600.951 167.579 601.128 167.472 601.312 167.376C601.892 167.085 602.531 166.927 603.181 166.915C603.779 166.9 604.375 166.972 604.951 167.129C605.419 167.254 605.875 167.419 606.314 167.622C606.672 167.787 606.921 167.926 607.004 167.976C607.087 168.025 607.054 167.894 607.145 167.77C607.237 167.647 607.37 167.466 607.528 167.277C607.685 167.088 607.86 166.874 608.051 166.669C608.227 166.476 608.419 166.297 608.624 166.134C608.953 165.884 609.325 165.695 609.721 165.575C610.075 165.466 610.44 165.4 610.81 165.378C611.087 165.358 611.364 165.358 611.641 165.378L612.015 165.428C612.981 165.627 613.845 166.16 614.45 166.932C615.088 167.753 615.575 168.68 615.887 169.669C616.224 170.713 616.501 171.775 616.718 172.85C616.943 173.894 617.134 174.881 617.367 175.678C617.682 175.406 618.034 175.179 618.414 175.004C619.204 174.612 620.113 174.524 620.965 174.757C621.962 175.037 623.067 175.826 624.139 177.577C625.211 179.328 626.225 182.032 627.056 186.134C627.172 186.701 627.28 187.235 627.38 187.704C627.48 188.172 627.571 188.6 627.654 188.945C627.737 189.29 627.796 189.57 627.837 189.767C627.879 189.964 627.904 190.055 627.904 190.055C628.12 192.29 628.311 194.625 628.469 197.042C628.627 199.458 628.743 201.974 628.818 204.538C628.893 207.103 628.917 209.791 628.892 212.536C628.868 215.282 628.784 218.093 628.635 220.986C628.485 223.88 628.286 226.798 628.037 229.576C627.787 232.355 627.48 235.051 627.139 237.665C626.798 240.279 626.424 242.786 626.017 245.219C625.61 247.652 625.186 249.978 624.729 252.214C626.657 261.01 628.582 269.808 630.505 278.609L636.322 305.003L642.139 331.398C644.055 340.078 645.978 348.802 647.906 357.57L677.107 399.574L698.256 429.988L711.12 448.483L715.458 454.722C715.458 454.722 715.973 455.544 716.771 457.032C717.568 458.52 718.665 460.542 719.821 462.975C720.976 465.408 722.197 468.203 723.261 471.138C724.341 474.051 725.175 477.048 725.754 480.097V480.245V480.434C725.754 480.5 725.754 480.566 725.795 480.648C725.837 480.73 725.795 480.804 725.795 480.886C726.257 483.82 726.382 486.795 726.169 489.756C725.97 492.531 725.516 495.282 724.815 497.976C724.188 500.378 723.371 502.728 722.372 505.004C721.562 506.864 720.592 508.652 719.471 510.347C717.335 513.433 714.608 516.075 711.444 518.123C708.174 520.236 704.618 521.879 700.882 523.006C697.1 524.163 693.197 524.889 689.248 525.168C685.53 525.456 681.791 525.321 678.104 524.765C672.631 523.891 667.441 521.757 662.955 518.534C658.194 515.246 653.606 510.626 648.87 504.733C643.469 497.799 638.475 490.565 633.912 483.065C628.552 474.491 622.71 464.562 616.062 453.218C611.076 444.661 606.68 437.181 602.841 430.391C599.001 423.601 595.827 417.576 592.985 411.822C590.3 406.408 587.92 400.851 585.855 395.177C583.877 389.672 582.275 384.042 581.06 378.326Z" fill="#F2B3C1" stroke="black" stroke-width="3" stroke-miterlimit="10" stroke-linecap="round"/>
<path d="M500.262 478.486L518.951 506.985L537.657 535.484L556.346 563.991L575.035 592.489C575.035 592.489 581.376 589.76 591.448 585.182C601.519 580.603 615.322 574.183 630.239 566.802C645.155 559.42 661.193 551.069 675.728 542.651C690.262 534.234 703.292 525.743 712.209 518.065C713.189 517.243 714.344 516.191 715.591 514.958C716.957 513.601 718.242 512.165 719.438 510.659C720.829 508.905 722.076 507.044 723.169 505.094C724.397 502.902 725.402 500.595 726.169 498.206C726.971 495.729 727.503 493.175 727.757 490.586C727.983 488.222 728.002 485.843 727.815 483.476C727.636 481.267 727.325 479.072 726.884 476.9C726.477 474.812 725.987 472.79 725.521 470.932C723.934 464.561 721.615 458.392 718.607 452.544C716.02 447.525 712.986 442.744 709.541 438.257C706.822 434.716 703.871 431.355 700.708 428.196C698.065 425.549 695.854 423.626 694.483 422.442C691.5 419.874 688.367 417.481 685.101 415.274C682.085 413.236 679.226 411.534 676.65 410.137C674.074 408.739 671.764 407.671 669.869 406.8C667.974 405.928 666.462 405.369 665.481 404.999L664.193 404.539C663.362 404.251 662.191 403.849 660.761 403.405C659.332 402.961 657.662 402.468 655.842 401.983C654.022 401.498 652.077 401.046 650.091 400.667C644.027 399.602 637.851 399.298 631.71 399.763C624.367 400.276 617.082 401.415 609.937 403.166C601.886 405.117 593.988 407.639 586.304 410.712C570.253 417.105 555.157 425.628 541.43 436.046C535.436 440.605 529.715 445.505 524.294 450.719C519.184 455.651 514.663 460.525 510.674 465.211C506.686 469.896 503.179 474.384 500.262 478.486Z" fill="#ECE7E1" stroke="black" stroke-width="3" stroke-miterlimit="10" stroke-linecap="round"/>
<path d="M743.745 428.648C748.401 425.652 752.534 421.93 755.986 417.625C759.583 413.208 762.462 408.263 764.52 402.969C766.562 397.83 767.57 392.346 767.487 386.825C767.385 381.357 765.841 376.01 763.008 371.314C760.234 366.777 756.433 362.939 751.905 360.102C747.328 357.251 742.214 355.347 736.873 354.504C731.22 353.604 725.449 353.718 719.837 354.841C713.801 356.039 708.02 358.264 702.752 361.417C702.345 361.655 701.921 361.902 701.555 362.149L700.392 362.913C700.001 363.176 699.627 363.431 699.245 363.735L698.131 364.557L696.17 363.595L694.209 362.625L692.223 361.68L690.262 360.71V366.217C690.262 367.138 690.262 368.051 690.262 368.971V371.725C690.262 371.881 689.979 372.193 689.539 372.596C689.099 372.999 688.517 373.476 687.877 373.952C687.237 374.429 686.647 374.914 686.14 375.309C685.781 375.563 685.437 375.837 685.11 376.131C684.34 376.936 683.608 377.775 682.916 378.646C682.221 379.514 681.572 380.417 680.971 381.35C680.366 382.282 679.811 383.246 679.309 384.236C678.804 385.224 678.355 386.24 677.963 387.277C676.976 389.901 676.385 392.654 676.21 395.448C676.038 398.233 676.225 401.028 676.766 403.766C677.294 406.524 678.13 409.215 679.259 411.789C680.386 414.358 681.778 416.804 683.414 419.088C686.705 423.652 690.958 427.455 695.879 430.235C700.693 432.94 705.984 434.715 711.469 435.463C717 436.233 722.624 436.043 728.089 434.904C733.647 433.773 738.952 431.654 743.745 428.648Z" fill="#F2B3C1" stroke="black" stroke-width="3" stroke-miterlimit="10" stroke-linecap="round"/>
<path d="M710.397 377.232C710.12 377.387 709.815 377.484 709.499 377.52C709.193 377.56 708.882 377.537 708.585 377.454C708.284 377.375 708.001 377.236 707.754 377.047C707.507 376.858 707.301 376.622 707.148 376.353C706.991 376.084 706.89 375.787 706.85 375.48C706.811 375.172 706.833 374.86 706.915 374.561C706.992 374.264 707.128 373.984 707.314 373.739C707.51 373.49 707.753 373.281 708.029 373.122C708.305 372.967 708.61 372.866 708.926 372.826C709.232 372.794 709.542 372.817 709.84 372.892C710.141 372.971 710.423 373.108 710.671 373.295C710.924 373.487 711.136 373.727 711.294 374.001C711.452 374.274 711.554 374.577 711.594 374.89C711.63 375.192 711.607 375.499 711.527 375.794C711.448 376.092 711.31 376.371 711.12 376.616C710.925 376.869 710.679 377.079 710.397 377.232Z" fill="#040400"/>
<path d="M689.489 382.838C689.614 382.838 689.954 382.789 690.436 382.781C691.044 382.773 691.65 382.823 692.248 382.929C693.035 383.056 693.801 383.289 694.525 383.619C695.388 384.014 696.177 384.551 696.86 385.206C697.388 385.723 697.846 386.306 698.223 386.94C698.539 387.459 698.798 388.011 698.996 388.584C699.147 389.044 699.263 389.513 699.345 389.99C699.395 390.278 699.428 390.569 699.444 390.861" stroke="black" stroke-width="3" stroke-miterlimit="10" stroke-linecap="round"/>
<path d="M717.918 364.812L719.33 368.157L720.743 371.503L722.147 374.848L723.56 378.194" stroke="black" stroke-width="3" stroke-miterlimit="10" stroke-linecap="round"/>
<path d="M715.857 402.648C715.013 403.128 714.08 403.433 713.114 403.544C712.182 403.656 711.237 403.59 710.33 403.347C709.429 403.098 708.583 402.683 707.837 402.122C707.065 401.54 706.418 400.81 705.934 399.977C705.457 399.157 705.149 398.252 705.028 397.314C704.906 396.376 704.975 395.423 705.228 394.511C705.473 393.618 705.89 392.78 706.458 392.045C707.05 391.28 707.79 390.64 708.635 390.162C709.478 389.683 710.411 389.378 711.378 389.266C712.798 389.099 714.237 389.348 715.517 389.982C716.796 390.617 717.859 391.608 718.574 392.834C719.059 393.671 719.367 394.596 719.48 395.555C719.594 396.474 719.524 397.407 719.272 398.3C719.028 399.193 718.61 400.031 718.042 400.766C717.448 401.531 716.705 402.171 715.857 402.648Z" fill="#FF6406" stroke="#070707" stroke-width="3" stroke-miterlimit="10" stroke-linecap="round"/>
<path d="M733.939 433.252C734.513 433.046 735.103 432.832 735.709 432.594C736.316 432.356 736.931 432.101 737.562 431.829C738.194 431.558 738.842 431.262 739.49 430.95C740.138 430.638 740.812 430.301 741.485 429.939C742.737 429.265 743.922 428.572 745.041 427.859C746.16 427.147 747.205 426.432 748.174 425.714C749.147 424.999 750.044 424.275 750.875 423.577C751.706 422.878 752.479 422.179 753.177 421.522C753.546 421.922 753.892 422.342 754.216 422.779C754.651 423.363 755.037 423.982 755.371 424.629C755.742 425.365 756.021 426.143 756.202 426.947C756.403 427.817 756.454 428.715 756.351 429.602C756.118 431.257 755.405 432.811 754.299 434.074C753.127 435.44 751.688 436.558 750.069 437.362C748.413 438.214 746.613 438.757 744.759 438.964C742.969 439.177 741.153 438.96 739.465 438.331C738.751 438.05 738.074 437.686 737.446 437.246C736.879 436.849 736.353 436.397 735.875 435.898C735.452 435.458 735.06 434.988 734.704 434.493C734.427 434.093 734.171 433.678 733.939 433.252Z" fill="#F2B3C1" stroke="black" stroke-width="3" stroke-miterlimit="10" stroke-linecap="round"/>
<path d="M500.262 478.486C490.007 467.186 480.664 456.774 472.232 447.25C463.801 437.726 456.247 429.018 449.571 421.127C442.923 413.258 437.106 406.2 432.12 399.952C427.134 393.705 422.998 388.211 419.713 383.471C418.35 381.523 416.796 379.23 414.976 376.755C413.157 374.281 411.087 371.61 408.686 368.914C406.141 366.047 403.383 363.374 400.434 360.916C397.138 358.183 393.584 355.769 389.822 353.707C388.351 352.885 386.265 351.849 384.005 350.706C381.745 349.564 379.185 348.339 376.85 347.221C374.515 346.103 372.371 345.076 370.809 344.336L368.258 343.127L327.58 323.046L286.953 302.923L246.325 282.768L205.697 262.645L191.903 288.07L178.1 313.494L164.305 338.919L150.502 364.343L197.869 384.458L245.236 404.564L292.603 424.678L339.929 444.792C350.69 465.4 360.804 484.651 370.111 502.242C379.418 519.833 387.902 535.755 395.415 549.712C402.927 563.67 409.45 575.671 414.819 585.387C420.187 595.103 424.317 602.526 427.217 607.458C427.608 608.124 428.131 608.995 428.804 610.031C429.477 611.067 430.3 612.258 431.297 613.549C432.295 614.84 433.441 616.237 434.779 617.659C436.21 619.206 437.734 620.666 439.341 622.032C443.085 625.213 447.234 627.897 451.682 630.014C455.56 631.865 459.613 633.335 463.781 634.403C467.123 635.265 470.522 635.896 473.953 636.294C476.828 636.631 479.105 636.738 480.493 636.795C482.986 636.886 485.287 636.853 487.473 636.721C489.658 636.59 491.719 636.376 493.639 636.105C495.559 635.833 497.354 635.505 499.024 635.159C500.694 634.814 502.232 634.469 503.661 634.132C506.486 633.483 509.096 632.743 511.539 631.962C513.982 631.181 516.25 630.318 518.386 629.496C520.522 628.674 522.541 627.737 524.428 626.849C526.314 625.961 528.134 625.065 529.887 624.202C533.045 622.632 535.962 621.054 538.679 619.476C541.397 617.897 543.914 616.319 546.266 614.766C548.618 613.212 550.803 611.691 552.864 610.203C554.925 608.716 556.861 607.277 558.681 605.896C560.501 604.515 562.055 603.34 563.601 602.123C565.146 600.907 566.609 599.715 567.972 598.589C569.335 597.462 570.598 596.377 571.77 595.366C572.941 594.355 574.013 593.41 574.986 592.539L556.296 564.04C550.069 554.505 543.856 544.986 537.657 535.484C531.458 525.981 525.228 516.482 518.968 506.985C512.708 497.483 506.472 487.983 500.262 478.486Z" fill="#84A1E5" stroke="#070707" stroke-width="3" stroke-miterlimit="10" stroke-linecap="round"/>
<path d="M355.776 362.288C355.069 368.014 354.83 373.787 355.061 379.55C355.336 385.954 356.388 392.301 358.194 398.456C359.888 404.288 362.323 409.884 365.441 415.11C368.387 420.049 372.024 424.551 376.244 428.484C380.287 432.259 384.927 435.355 389.98 437.649C392.285 438.68 394.672 439.519 397.118 440.156C399.418 440.746 401.76 441.161 404.124 441.398C406.363 441.618 408.615 441.683 410.863 441.595C412.99 441.515 415.11 441.309 417.212 440.978C417.417 445.578 418.071 450.148 419.165 454.624C420.106 458.527 421.345 462.355 422.871 466.074C424.12 469.076 425.543 472.005 427.134 474.845C428.489 477.311 429.718 479.168 430.599 480.451C433.623 484.837 437.089 488.907 440.945 492.6C444.833 496.329 449.074 499.679 453.61 502.604C458.198 505.573 463.058 508.108 468.127 510.174C473.264 512.273 478.589 513.888 484.033 514.999C488.392 515.884 492.811 516.45 497.254 516.693C501.338 516.916 505.434 516.861 509.511 516.528C513.249 516.221 516.965 515.691 520.638 514.942C521.685 514.728 522.699 514.49 523.705 514.251L518.943 506.985L518.561 506.41C514.724 507.192 510.836 507.706 506.927 507.947C494.821 508.729 482.694 506.761 471.476 502.193C466.928 500.342 462.566 498.075 458.446 495.419C454.373 492.79 450.566 489.779 447.078 486.427C443.627 483.128 440.525 479.49 437.821 475.568C436.99 474.384 435.876 472.634 434.621 470.381C433.159 467.738 431.861 465.009 430.732 462.211C429.339 458.742 428.227 455.168 427.408 451.525C426.476 447.394 425.972 443.18 425.904 438.948L426.02 438.907H426.137H426.253L426.369 438.866C428.031 438.34 429.552 437.789 430.948 437.222C432.344 436.655 433.616 436.104 434.738 435.578C435.86 435.052 436.823 434.55 437.621 434.123C438.419 433.695 439.042 433.301 439.474 433.071C442.949 430.988 446.189 428.544 449.139 425.78C449.97 425.032 450.709 424.259 451.466 423.461L449.571 421.127C448.266 419.598 447.012 418.11 445.782 416.639C444.951 417.584 444.045 418.505 443.114 419.376C440.624 421.722 437.882 423.792 434.937 425.549C434.63 425.73 434.214 425.977 433.691 426.265C433.167 426.552 432.552 426.881 431.837 427.234C431.123 427.588 430.325 427.974 429.436 428.361C428.547 428.747 427.583 429.183 426.536 429.544C426.644 428.829 426.768 428.098 426.91 427.374C427.051 426.651 427.2 425.911 427.367 425.171C427.533 424.431 427.724 423.692 427.923 422.952C428.123 422.212 428.347 421.456 428.588 420.708C429.087 419.121 429.652 417.568 430.25 416.031C430.849 414.493 431.572 412.997 432.328 411.526C433.084 410.055 433.907 408.616 434.821 407.202C435.278 406.479 435.743 405.772 436.225 405.065C434.804 403.306 433.433 401.596 432.12 399.952L430.558 397.963C429.428 399.484 428.356 401.037 427.358 402.632C426.361 404.227 425.406 405.92 424.533 407.564C423.66 409.208 422.871 410.975 422.148 412.734C421.425 414.493 420.777 416.277 420.203 418.094C419.821 419.294 419.48 420.494 419.181 421.678C418.882 422.861 418.608 424.045 418.35 425.212C418.093 426.38 417.927 427.547 417.76 428.698C417.594 429.848 417.469 430.983 417.361 432.109C415.536 432.459 413.69 432.695 411.835 432.816C409.874 432.96 407.905 432.96 405.943 432.816C403.872 432.666 401.818 432.341 399.802 431.846C397.659 431.324 395.57 430.606 393.562 429.7C389.245 427.743 385.293 425.081 381.869 421.826C378.268 418.407 375.176 414.499 372.687 410.219C370.023 405.66 367.946 400.788 366.504 395.719C364.962 390.328 364.061 384.778 363.82 379.18C363.6 373.809 363.823 368.429 364.485 363.094C365.148 357.752 366.122 352.452 367.402 347.221C367.723 345.884 368.058 344.552 368.407 343.226L368.191 343.119L360.413 339.272C359.873 341.278 359.341 343.3 358.859 345.339C357.508 350.926 356.479 356.585 355.776 362.288Z" fill="#C6FCDB" stroke="black" stroke-width="3" stroke-miterlimit="10" stroke-linecap="round"/>
<path d="M300.822 413.581C302.301 410.336 303.575 407.003 304.636 403.602C305.725 400.11 306.522 396.536 307.021 392.916C307.543 389.075 307.649 385.189 307.337 381.326C307.045 377.655 306.334 374.029 305.218 370.516C304.163 367.129 302.686 363.885 300.822 360.858C299.009 357.945 296.803 355.29 294.265 352.967C291.979 350.892 289.452 349.093 286.737 347.607C283.853 346.036 280.808 344.774 277.654 343.843C274.153 342.807 270.57 342.07 266.942 341.64C262.829 341.15 258.686 340.933 254.544 340.99C250.893 341.023 247.333 341.209 243.865 341.549C240.4 341.886 237.026 342.371 233.769 343.021C230.579 343.643 227.425 344.433 224.32 345.388C221.351 346.303 218.437 347.387 215.595 348.635C215.811 348.027 216.018 347.41 216.218 346.785C216.409 346.169 216.6 345.536 216.766 344.903C216.933 344.27 217.09 343.637 217.223 342.988C217.356 342.338 217.481 341.697 217.589 341.04C217.933 338.865 218.041 336.661 217.913 334.464C217.794 332.4 217.437 330.356 216.849 328.373C216.287 326.48 215.486 324.666 214.464 322.972C213.478 321.33 212.261 319.836 210.85 318.533C209.018 316.844 206.892 315.496 204.576 314.555C202.121 313.565 199.524 312.966 196.881 312.779C193.873 312.567 190.852 312.716 187.881 313.223C184.409 313.808 180.996 314.7 177.684 315.886L176.554 316.306L169.973 328.43L170.962 327.97C174.119 326.534 177.344 325.235 180.634 324.073C182.453 323.425 184.306 322.876 186.186 322.429C188.328 321.905 190.514 321.572 192.717 321.435C194.917 321.276 197.129 321.454 199.274 321.961C201.358 322.45 203.282 323.454 204.866 324.879C205.881 325.81 206.725 326.909 207.359 328.126C207.978 329.335 208.439 330.616 208.731 331.94C209.014 333.248 209.167 334.581 209.188 335.919C209.213 337.173 209.129 338.427 208.938 339.667C208.69 341.178 208.335 342.669 207.875 344.13C207.396 345.62 206.841 347.085 206.213 348.52C205.589 349.966 204.908 351.397 204.193 352.819C203.479 354.241 202.739 355.655 202.008 357.052L199.872 361.113L197.745 365.173L195.609 369.283L193.473 373.344L197.23 370.664L200.977 367.977L204.725 365.297L208.473 362.609C211.458 360.486 214.638 358.645 217.971 357.11C221.508 355.477 225.174 354.132 228.932 353.09C232.959 351.981 237.061 351.157 241.206 350.624C245.656 350.044 250.138 349.736 254.627 349.703C258.208 349.656 261.788 349.832 265.347 350.23C268.439 350.567 271.496 351.161 274.488 352.005C277.139 352.749 279.702 353.772 282.133 355.055C284.37 356.243 286.449 357.701 288.324 359.395C290.327 361.237 292.057 363.352 293.459 365.675C294.93 368.124 296.094 370.74 296.925 373.467C297.807 376.343 298.365 379.307 298.587 382.304C298.829 385.447 298.74 388.607 298.321 391.732C297.871 394.984 297.146 398.193 296.152 401.325C295.173 404.405 294.011 407.424 292.67 410.367C291.349 413.277 289.903 416.072 288.432 418.702C287.784 419.864 287.13 420.993 286.471 422.089L292.504 424.645L294.598 425.541C295.155 424.596 295.703 423.642 296.26 422.664C297.847 419.82 299.409 416.754 300.822 413.581Z" fill="#C6FCDB" stroke="black" stroke-width="3" stroke-miterlimit="10" stroke-linecap="round"/>
<path d="M521.868 596.772C516.648 589.512 510.36 583.064 503.212 577.644C496.377 572.43 488.526 568.671 480.152 566.605C475.882 565.596 471.492 565.167 467.105 565.331C462.837 565.504 458.614 566.262 454.557 567.583C450.424 568.937 446.494 570.837 442.873 573.23C439.054 575.764 435.568 578.757 432.494 582.14C428.873 586.124 425.8 590.563 423.353 595.342C422.854 596.303 422.389 597.29 421.949 598.285C424.018 601.942 425.788 605 427.234 607.425C427.333 607.606 427.458 607.803 427.583 608.017C428.51 604.992 429.706 602.055 431.156 599.238C433.256 595.15 435.894 591.355 439.001 587.952C441.535 585.147 444.41 582.662 447.56 580.554C450.537 578.577 453.768 577.001 457.166 575.869C460.498 574.768 463.969 574.134 467.479 573.986C471.064 573.834 474.652 574.177 478.141 575.005C485.568 576.865 492.509 580.27 498.5 584.993C504.872 589.989 510.471 595.879 515.12 602.477C519.935 609.212 523.932 616.485 527.029 624.145C527.186 624.523 527.319 624.901 527.469 625.279L529.846 624.112C531.765 623.158 533.593 622.197 535.347 621.235C535.255 620.996 535.172 620.758 535.073 620.52C531.656 612.105 527.223 604.132 521.868 596.772Z" fill="#C6FCDB" stroke="black" stroke-width="3" stroke-miterlimit="10" stroke-linecap="round"/>
<path d="M428.106 523.211C427.121 522.08 425.821 521.261 424.368 520.858C422.915 520.454 421.374 520.484 419.938 520.943C418.961 521.248 418.059 521.749 417.287 522.414C416.145 523.388 415.318 524.673 414.91 526.109C414.501 527.544 414.529 529.067 414.99 530.487C415.451 531.908 416.324 533.162 417.501 534.094C418.678 535.027 420.106 535.596 421.608 535.73C422.629 535.817 423.657 535.702 424.633 535.393C425.61 535.084 426.514 534.584 427.292 533.922C428.829 532.61 429.779 530.75 429.934 528.748C430.09 526.746 429.439 524.765 428.123 523.236L428.106 523.211Z" fill="#C6FCDB" stroke="black" stroke-width="3" stroke-miterlimit="10" stroke-linecap="round"/>
<path d="M500.262 478.486L482.379 458.199L464.487 437.904L446.579 417.617L428.696 397.322C426.959 395.361 425.117 393.492 423.178 391.724C418.53 387.418 413.474 383.564 408.079 380.216C401.135 375.835 393.514 372.606 385.518 370.656C376.348 368.46 366.768 368.573 357.654 370.985L306.764 387.039L255.873 403.092L204.991 419.138L154.101 435.191L163.474 464.052L172.848 492.879L182.222 521.74L191.595 550.592L232.472 534.497L273.349 518.394L314.226 502.291L355.103 486.188L374.025 518.033L392.938 549.869L411.86 581.713L430.774 613.557C433.374 616.816 436.366 619.75 439.682 622.295C447.551 628.505 456.734 632.88 466.548 635.094C478.515 637.806 493.514 637.847 511.58 631.863C529.646 625.879 550.762 613.87 574.994 592.489L556.305 563.991L537.657 535.484L518.968 506.985L500.262 478.486Z" fill="#84A1E5" stroke="#070707" stroke-width="3" stroke-miterlimit="10" stroke-linecap="round"/>
<path d="M523.688 514.251C526.056 513.684 528.325 513.051 530.469 512.369C532.812 511.629 535.006 510.832 537.059 510.018C539.111 509.204 540.998 508.374 542.734 507.552C544.471 506.73 546.058 505.908 547.413 505.177C548.767 504.445 550.014 503.705 551.036 503.08C551.54 502.78 551.975 502.379 552.316 501.905C552.973 500.981 553.244 499.841 553.072 498.724C552.982 498.142 552.776 497.583 552.465 497.08C552.156 496.585 551.749 496.158 551.269 495.822C550.807 495.496 550.285 495.264 549.731 495.14C549.187 495.013 548.623 494.991 548.069 495.074C547.48 495.159 546.914 495.363 546.407 495.674C543.801 497.248 541.104 498.67 538.33 499.932C533.963 501.928 529.442 503.577 524.81 504.864C522.815 505.415 520.721 505.925 518.527 506.368L518.91 506.944L523.688 514.251Z" fill="#C6FCDB" stroke="black" stroke-width="3" stroke-miterlimit="10" stroke-linecap="round"/>
<path d="M355.061 379.567C355.336 385.97 356.388 392.318 358.194 398.473C359.89 404.299 362.325 409.889 365.441 415.11C368.387 420.049 372.024 424.551 376.244 428.484C380.287 432.259 384.927 435.355 389.98 437.649C392.285 438.68 394.672 439.519 397.118 440.156C399.418 440.746 401.76 441.161 404.124 441.398C406.363 441.618 408.615 441.683 410.863 441.595C412.99 441.515 415.11 441.309 417.212 440.978C417.417 445.578 418.071 450.148 419.165 454.624C420.106 458.527 421.345 462.355 422.871 466.074C424.12 469.076 425.543 472.005 427.134 474.845C428.489 477.311 429.718 479.168 430.599 480.451C433.623 484.837 437.089 488.907 440.945 492.6C444.833 496.329 449.074 499.679 453.61 502.604C458.198 505.573 463.058 508.108 468.127 510.174C473.264 512.273 478.589 513.888 484.033 514.999C488.392 515.884 492.811 516.45 497.254 516.693C501.339 516.916 505.434 516.861 509.511 516.528C513.249 516.221 516.965 515.691 520.638 514.942C521.685 514.728 522.699 514.49 523.705 514.251L518.943 506.985L518.561 506.41C514.724 507.192 510.836 507.706 506.927 507.947C494.821 508.729 482.694 506.761 471.476 502.193C466.928 500.342 462.566 498.075 458.446 495.419C454.373 492.79 450.566 489.779 447.078 486.427C443.627 483.128 440.525 479.49 437.821 475.568C436.99 474.384 435.876 472.634 434.621 470.381C433.159 467.738 431.861 465.009 430.732 462.211C429.339 458.742 428.227 455.168 427.408 451.525C426.476 447.394 425.972 443.18 425.904 438.948L426.02 438.907H426.137H426.253L426.369 438.866C428.031 438.34 429.552 437.789 430.948 437.222C432.344 436.655 433.616 436.104 434.738 435.578C435.86 435.052 436.823 434.55 437.621 434.123C438.419 433.695 439.042 433.301 439.474 433.071C442.949 430.988 446.189 428.544 449.139 425.78C449.97 424.958 450.801 424.185 451.557 423.314L446.571 417.666L445.74 416.721C444.909 417.658 444.012 418.562 443.098 419.425C440.607 421.772 437.865 423.842 434.92 425.599C434.613 425.78 434.197 426.026 433.674 426.314C433.15 426.602 432.536 426.93 431.821 427.284C431.106 427.637 430.308 428.024 429.419 428.41C428.53 428.796 427.566 429.232 426.519 429.594C426.627 428.878 426.752 428.147 426.893 427.424C427.034 426.7 427.184 425.96 427.35 425.221C427.516 424.481 427.707 423.741 427.907 423.001C428.106 422.261 428.331 421.505 428.572 420.757C429.07 419.171 429.635 417.617 430.234 416.08C430.832 414.543 431.555 413.047 432.311 411.575C433.067 410.104 433.89 408.665 434.804 407.252C435.161 406.684 435.535 406.126 435.909 405.567L429.959 398.826C429.045 400.084 428.164 401.366 427.342 402.681C426.328 404.325 425.386 405.969 424.516 407.613C423.685 409.307 422.854 411.025 422.131 412.784C421.408 414.543 420.76 416.327 420.187 418.143C419.805 419.343 419.464 420.543 419.165 421.727C418.866 422.911 418.591 424.094 418.334 425.262C418.076 426.429 417.91 427.596 417.744 428.747C417.578 429.898 417.453 431.032 417.345 432.158C415.52 432.508 413.674 432.744 411.819 432.865C409.857 433.009 407.888 433.009 405.927 432.865C403.856 432.715 401.801 432.39 399.786 431.895C397.643 431.373 395.553 430.655 393.545 429.75C389.229 427.792 385.276 425.13 381.853 421.875C378.251 418.456 375.159 414.548 372.67 410.268C370.006 405.709 367.929 400.838 366.488 395.768C364.945 390.378 364.045 384.827 363.803 379.23C363.666 376.058 363.691 372.881 363.878 369.711C361.77 370.021 359.68 370.449 357.621 370.993L355.003 371.815C354.945 374.363 354.945 376.969 355.061 379.567Z" fill="#C6FCDB" stroke="black" stroke-width="3" stroke-miterlimit="10" stroke-linecap="round"/>
<path d="M535.106 620.561C531.682 612.131 527.237 604.143 521.868 596.772C516.648 589.512 510.36 583.064 503.212 577.644C496.377 572.43 488.526 568.671 480.152 566.605C475.882 565.596 471.492 565.167 467.105 565.331C462.837 565.504 458.614 566.262 454.557 567.583C450.424 568.937 446.494 570.837 442.873 573.23C439.054 575.764 435.568 578.757 432.494 582.14C428.873 586.124 425.8 590.563 423.353 595.342C422.821 596.377 422.323 597.43 421.849 598.498L427.558 608.099C428.488 605.045 429.692 602.08 431.156 599.238C433.256 595.15 435.894 591.355 439.001 587.952C441.535 585.147 444.41 582.662 447.56 580.554C450.537 578.577 453.768 577.001 457.166 575.869C460.498 574.768 463.969 574.134 467.479 573.986C471.064 573.834 474.652 574.177 478.141 575.005C485.568 576.865 492.509 580.27 498.5 584.993C504.872 589.989 510.471 595.879 515.12 602.477C519.935 609.212 523.932 616.485 527.029 624.145C527.186 624.523 527.328 624.909 527.477 625.287C530.037 624.038 532.663 622.673 535.33 621.177C535.272 621.005 535.164 620.783 535.106 620.561Z" fill="#C6FCDB" stroke="black" stroke-width="3" stroke-miterlimit="10" stroke-linecap="round"/>
<path d="M251.627 513.865C250.145 511.948 248.502 510.157 246.716 508.514C244.923 506.867 242.997 505.369 240.957 504.034C238.91 502.688 236.753 501.514 234.508 500.524C237.506 499.039 240.418 497.392 243.234 495.592C246.104 493.761 248.878 491.785 251.544 489.674C254.192 487.57 256.724 485.328 259.131 482.958C261.487 480.642 263.707 478.194 265.779 475.626C268.695 472.038 271.26 468.185 273.441 464.118C275.463 460.34 277.067 456.357 278.227 452.24C279.32 448.329 279.931 444.302 280.047 440.247C280.33 431.979 278.235 423.801 274.006 416.664C271.664 412.651 268.877 408.91 265.696 405.509C264.349 404.054 262.903 402.657 261.416 401.3L255.848 403.059L250.414 404.769C253.211 406.865 255.822 409.194 258.217 411.732C260.9 414.563 263.261 417.678 265.255 421.02C268.42 426.223 270.14 432.161 270.241 438.233C270.309 441.304 270.011 444.372 269.352 447.373C268.54 451.021 267.287 454.56 265.621 457.912C263.541 462.065 261.005 465.98 258.059 469.584C255.738 472.457 253.214 475.162 250.505 477.681C247.77 480.256 244.869 482.653 241.821 484.857C238.773 487.045 235.584 489.033 232.273 490.808C229.079 492.522 225.763 494.003 222.351 495.239C221.705 495.47 221.102 495.803 220.564 496.225C220.046 496.632 219.599 497.12 219.243 497.672C218.883 498.22 218.616 498.822 218.453 499.455C218.195 500.432 218.184 501.456 218.42 502.438C218.656 503.42 219.133 504.329 219.808 505.086C220.25 505.578 220.769 505.997 221.345 506.327C221.94 506.663 222.585 506.902 223.256 507.034C225.764 507.534 228.207 508.314 230.536 509.36C232.863 510.398 235.07 511.683 237.118 513.191C239.153 514.685 241.017 516.394 242.677 518.287C244.324 520.155 245.738 522.211 246.89 524.411C247.526 525.627 248.081 526.881 248.552 528.168L257.61 524.6C257.025 523.021 256.342 521.478 255.566 519.981C254.434 517.833 253.116 515.787 251.627 513.865Z" fill="#C6FCDB" stroke="black" stroke-width="3" stroke-miterlimit="10" stroke-linecap="round"/>
<path d="M427.292 533.922C428.829 532.61 429.779 530.75 429.934 528.748C430.09 526.746 429.439 524.765 428.123 523.236C427.138 522.105 425.838 521.286 424.385 520.882C422.931 520.479 421.39 520.508 419.954 520.967C418.978 521.273 418.076 521.774 417.303 522.439C416.161 523.413 415.335 524.697 414.926 526.133C414.518 527.569 414.546 529.092 415.007 530.512C415.467 531.932 416.341 533.187 417.518 534.119C418.694 535.051 420.123 535.62 421.624 535.755C422.645 535.842 423.673 535.727 424.649 535.418C425.623 535.1 426.521 534.591 427.292 533.922Z" fill="#C6FCDB" stroke="black" stroke-width="3" stroke-miterlimit="10" stroke-linecap="round"/>
<path d="M154.142 435.15L162.045 459.383L169.915 483.616L177.792 507.856L185.662 532.089L164.538 538.788L143.464 545.487L122.39 552.179L101.307 558.878C100.157 559.243 98.9239 559.265 97.7611 558.942C96.5982 558.619 95.5571 557.965 94.7672 557.061C94.2326 556.443 93.8286 555.724 93.5789 554.949L82.5266 520.926L71.466 486.895L60.4137 452.873L49.3614 418.842C48.9814 417.678 48.9063 416.438 49.1433 415.237C49.3802 414.037 49.9213 412.915 50.7159 411.978C51.2531 411.346 51.9004 410.814 52.6272 410.408C55.2767 408.887 58.111 407.704 61.0619 406.89C64.6496 405.883 68.4062 405.603 72.1059 406.068C76.5931 406.709 80.8453 408.456 84.4712 411.148C88.6262 414.181 92.8726 418.727 96.8697 425.319C97.6674 426.64 98.5289 427.92 99.4541 429.158C100.378 430.388 101.366 431.571 102.412 432.701C103.46 433.826 104.57 434.894 105.736 435.898C106.908 436.904 108.14 437.837 109.426 438.693C110.843 439.646 112.329 440.495 113.872 441.233C115.46 442.002 117.122 442.614 118.833 443.058C120.574 443.513 122.367 443.743 124.168 443.74C126.058 443.748 127.938 443.471 129.744 442.918L135.852 440.978L141.951 439.038L148.059 437.099L154.142 435.15Z" fill="#DBCAF4" stroke="black" stroke-width="3" stroke-miterlimit="10" stroke-linecap="round"/>
<path d="M163.765 498.839C162.089 499.374 160.575 500.315 159.361 501.576C158.187 502.799 157.332 504.286 156.868 505.908C156.202 505.388 155.477 504.946 154.707 504.593C153.935 504.244 153.123 503.987 152.289 503.828C151.441 503.664 150.576 503.606 149.713 503.656C147.925 503.76 146.193 504.308 144.677 505.251C143.951 505.717 143.284 506.269 142.691 506.895C142.105 507.502 141.597 508.178 141.179 508.908C140.758 509.634 140.426 510.407 140.19 511.21C138.86 510.162 137.291 509.454 135.619 509.147C134.774 508.98 133.911 508.925 133.051 508.982C130.748 509.1 128.548 509.967 126.794 511.448C125.763 512.324 124.916 513.39 124.301 514.588C123.665 515.803 123.278 517.13 123.164 518.493C123.05 519.856 123.211 521.228 123.636 522.529L125.788 529.163L127.949 535.788L130.101 542.421L132.254 549.055L136.409 547.732L140.564 546.408L144.719 545.085L148.874 543.761L149.705 543.49L150.536 543.219L151.367 542.956L152.198 542.684L155.522 541.624L158.846 540.572L162.17 539.512L165.494 538.459L166.325 538.196L167.156 537.925L167.987 537.662L168.818 537.391L172.973 536.067L177.128 534.744L181.283 533.412L185.438 532.089L183.277 525.455L181.125 518.83L178.972 512.196L177.003 505.571C176.577 504.241 175.882 503.01 174.959 501.954C174.073 500.939 172.998 500.102 171.793 499.488C170.562 498.863 169.219 498.484 167.84 498.373C166.461 498.261 165.074 498.42 163.757 498.839H163.765Z" fill="#ECE7E1" stroke="black" stroke-width="3" stroke-miterlimit="10" stroke-linecap="round"/>
<path d="M156.86 505.916L159.377 513.66L161.895 521.411L164.405 529.154L166.923 536.906" stroke="black" stroke-width="3" stroke-miterlimit="10" stroke-linecap="round"/>
<path d="M140.165 511.218L142.683 518.962L145.201 526.713L147.71 534.464L150.228 542.208" stroke="black" stroke-width="3" stroke-miterlimit="10" stroke-linecap="round"/>
<path d="M88.4101 442.055L91.1939 438.874L93.9861 435.693L96.7783 432.512L99.5621 429.331" stroke="black" stroke-width="3" stroke-miterlimit="10" stroke-linecap="round"/>
<path d="M102.412 453.982L104.839 450.579L107.265 447.176L109.692 443.773L112.119 440.37" stroke="black" stroke-width="3" stroke-miterlimit="10" stroke-linecap="round"/>
<path d="M117.927 432.413C119.415 432.413 120.91 432.323 122.415 432.208C123.919 432.092 125.415 431.945 126.902 431.723C128.389 431.501 129.877 431.238 131.331 430.901C132.786 430.559 134.221 430.136 135.628 429.635C136.864 429.164 138.056 428.59 139.192 427.917C140.631 427.093 141.992 426.141 143.256 425.073C144.463 424.086 145.48 422.891 146.256 421.546C146.592 420.986 146.798 420.36 146.861 419.712C146.925 419.065 146.843 418.411 146.622 417.798C146.242 416.878 145.642 416.062 144.874 415.422C144.105 414.782 143.191 414.336 142.209 414.124C139.893 413.605 137.498 413.532 135.154 413.91C132.609 414.254 130.093 414.779 127.625 415.48C125.273 416.121 123.212 416.779 121.808 417.181C119.789 417.749 117.794 418.414 115.833 419.154C113.872 419.894 111.936 420.724 110.016 421.62C108.096 422.516 106.243 423.486 104.415 424.505C102.587 425.525 100.792 426.618 99.0386 427.793C101.033 426.49 102.898 425.001 104.606 423.346C106.303 421.708 107.88 419.953 109.326 418.094C110.797 416.244 112.16 414.304 113.481 412.34C114.803 410.375 116.049 408.361 117.296 406.364C117.877 405.451 118.434 404.506 118.958 403.544C119.481 402.583 119.996 401.605 120.453 400.602C120.91 399.603 121.315 398.583 121.667 397.544C122.01 396.507 122.287 395.45 122.498 394.379C122.687 393.315 122.787 392.237 122.797 391.157C122.821 389.909 122.704 388.663 122.448 387.441C122.227 386.294 121.75 385.21 121.052 384.269C120.717 383.818 120.293 383.44 119.806 383.158C119.319 382.875 118.779 382.694 118.218 382.625C117.316 382.548 116.411 382.737 115.617 383.167C114.686 383.652 113.823 384.255 113.049 384.959C112.247 385.686 111.489 386.46 110.781 387.277C110.099 388.05 109.509 388.798 109.044 389.381C108.371 390.203 107.747 391.124 107.157 392.036C106.567 392.949 106.027 393.886 105.495 394.848C104.964 395.809 104.515 396.788 104.083 397.774C103.651 398.76 103.252 399.78 102.878 400.791C102.163 402.764 101.54 404.777 101.025 406.824C100.509 408.871 100.086 410.934 99.7615 413.03C99.4375 415.126 99.2214 417.231 99.0884 419.335C98.9555 421.439 98.9305 423.544 98.9887 425.64C98.9818 426.585 99.1596 427.523 99.5122 428.402C99.789 429.066 100.254 429.636 100.85 430.046C101.502 430.468 102.221 430.78 102.978 430.966C103.809 431.205 104.772 431.394 105.853 431.608C106.933 431.821 107.839 431.953 108.836 432.076C109.833 432.199 110.839 432.29 111.844 432.347C112.85 432.405 113.855 432.446 114.869 432.462C115.883 432.479 116.922 432.438 117.927 432.413Z" stroke="black" stroke-width="3" stroke-miterlimit="10" stroke-linecap="round"/>
<path d="M205.631 262.621L193.357 284.996L181.075 307.362L168.793 329.729L156.511 352.104L137.057 341.648L117.603 331.2L98.1494 320.744L78.6957 310.297C77.9719 309.911 77.3334 309.385 76.8176 308.751C75.8212 307.512 75.3505 305.938 75.5047 304.362C75.5883 303.552 75.834 302.767 76.2276 302.052L93.4709 270.644L110.714 239.243L127.974 207.834L145.217 176.426C145.616 175.699 146.139 175.045 146.763 174.494C147.368 173.955 148.058 173.519 148.807 173.204C150.336 172.56 152.043 172.464 153.635 172.932C156.569 173.781 159.383 174.991 162.012 176.533C165.218 178.411 168.01 180.907 170.222 183.873C172.85 187.519 174.51 191.758 175.05 196.203C175.732 201.3 175.316 207.448 173.255 214.863C172.84 216.342 172.499 217.846 172.233 219.359C171.967 220.871 171.793 222.392 171.685 223.921C171.584 225.448 171.57 226.979 171.643 228.508C171.717 230.04 171.886 231.566 172.15 233.078C172.435 234.749 172.841 236.397 173.363 238.01C173.901 239.67 174.599 241.275 175.449 242.802C176.323 244.359 177.393 245.801 178.632 247.093C179.945 248.443 181.458 249.588 183.119 250.488L188.753 253.513L194.388 256.538L200.013 259.563L205.631 262.621Z" fill="#DBCAF4" stroke="black" stroke-width="3" stroke-miterlimit="10" stroke-linecap="round"/>
<path d="M165.718 313.503C164.934 313.075 164.095 312.751 163.225 312.541C161.555 312.13 159.809 312.13 158.139 312.541C157.316 312.744 156.521 313.044 155.771 313.437C155.695 312.597 155.516 311.769 155.239 310.971C154.682 309.361 153.735 307.91 152.48 306.746C151.826 306.145 151.097 305.628 150.311 305.209C148.78 304.386 147.067 303.951 145.325 303.943C144.485 303.947 143.648 304.049 142.832 304.247C142.012 304.448 141.22 304.746 140.472 305.135C140.391 304.295 140.209 303.467 139.932 302.669C139.654 301.876 139.28 301.12 138.819 300.416C138.345 299.704 137.787 299.05 137.157 298.468C136.503 297.872 135.777 297.358 134.996 296.939C132.542 295.623 129.661 295.323 126.985 296.106C124.308 296.889 122.055 298.691 120.719 301.115L117.395 307.239L114.03 313.355L110.706 319.479L107.382 325.594L111.221 327.666L115.06 329.729L118.899 331.792L122.747 333.855L123.528 334.275L124.309 334.694L125.14 335.121L125.921 335.54L128.988 337.184L132.054 338.828L135.121 340.472L138.187 342.116L138.96 342.536L139.741 342.955L140.514 343.366L141.287 343.785L145.142 345.857L148.99 347.92L152.838 349.991L156.693 352.063L160.017 345.939L163.341 339.823L166.707 333.699L170.031 327.575C170.706 326.356 171.125 325.014 171.261 323.63C171.531 320.928 170.723 318.229 169.009 316.108C168.103 315.027 166.983 314.14 165.718 313.503Z" fill="#ECE7E1" stroke="black" stroke-width="3" stroke-miterlimit="10" stroke-linecap="round"/>
<path d="M155.779 313.445L151.857 320.596L147.926 327.748L143.996 334.899L140.073 342.051" stroke="black" stroke-width="3" stroke-miterlimit="10" stroke-linecap="round"/>
<path d="M140.364 305.168L136.442 312.319L132.52 319.47L128.589 326.622L124.667 333.773" stroke="black" stroke-width="3" stroke-miterlimit="10" stroke-linecap="round"/>
<path d="M155.181 220.37L159.436 220.173L163.69 219.967L167.937 219.77L172.192 219.564" stroke="black" stroke-width="3" stroke-miterlimit="10" stroke-linecap="round"/>
<path d="M156.137 238.627L160.292 238.01L164.447 237.402L168.602 236.785L172.757 236.169" stroke="black" stroke-width="3" stroke-miterlimit="10" stroke-linecap="round"/>
<path d="M182.621 234.837C183.668 235.873 184.748 236.9 185.87 237.895C186.992 238.89 188.138 239.86 189.318 240.772C190.498 241.684 191.728 242.564 192.991 243.361C194.248 244.167 195.549 244.902 196.889 245.564C198.085 246.125 199.327 246.582 200.603 246.929C202.199 247.39 203.835 247.703 205.49 247.866C207.043 248.056 208.618 247.958 210.135 247.578C210.776 247.434 211.376 247.151 211.893 246.751C212.41 246.35 212.832 245.841 213.127 245.26C213.54 244.353 213.723 243.361 213.661 242.368C213.599 241.376 213.293 240.413 212.769 239.564C211.551 237.546 209.951 235.78 208.057 234.36C206.041 232.785 203.917 231.348 201.7 230.061C199.615 228.828 197.703 227.801 196.432 227.061C194.62 226.017 192.759 225.047 190.864 224.159C188.969 223.272 187.025 222.45 185.047 221.693C183.069 220.937 181.092 220.288 179.072 219.688C177.053 219.088 175.034 218.553 172.989 218.044C175.317 218.573 177.691 218.881 180.078 218.964C182.449 219.044 184.823 218.959 187.183 218.71C189.551 218.479 191.911 218.118 194.255 217.69C196.598 217.263 198.941 216.786 201.26 216.301C202.332 216.079 203.404 215.833 204.476 215.545C205.548 215.257 206.612 214.945 207.659 214.583C208.704 214.218 209.73 213.801 210.733 213.334C211.732 212.867 212.698 212.334 213.625 211.739C214.533 211.142 215.389 210.471 216.185 209.733C217.12 208.889 217.956 207.943 218.678 206.914C219.362 205.963 219.825 204.874 220.032 203.724C220.121 203.179 220.098 202.621 219.963 202.084C219.829 201.547 219.587 201.043 219.251 200.601C218.68 199.9 217.915 199.38 217.049 199.105C216.052 198.773 215.016 198.574 213.966 198.513C212.881 198.447 211.793 198.447 210.708 198.513C209.67 198.562 208.722 198.653 207.966 198.727C206.877 198.834 205.797 198.998 204.725 199.203C203.653 199.409 202.598 199.68 201.542 199.976C200.487 200.272 199.457 200.626 198.426 200.995C197.396 201.365 196.39 201.817 195.393 202.22C193.448 203.07 191.548 204.016 189.701 205.056C187.848 206.092 186.044 207.226 184.291 208.443C182.537 209.659 180.851 210.95 179.222 212.314C177.593 213.679 176.031 215.109 174.543 216.597C173.846 217.246 173.282 218.022 172.881 218.882C172.595 219.536 172.503 220.258 172.615 220.962C172.768 221.723 173.049 222.454 173.446 223.124C173.854 223.88 174.377 224.694 174.967 225.59C175.557 226.486 176.081 227.234 176.679 228.056C177.277 228.878 177.909 229.634 178.557 230.398C179.205 231.163 179.878 231.911 180.568 232.642C181.258 233.374 181.914 234.13 182.621 234.837Z" stroke="black" stroke-width="3" stroke-miterlimit="10" stroke-linecap="round"/>
<path d="M662.307 445.59C662.307 445.59 663.761 445.672 666.238 445.919C668.714 446.165 672.221 446.584 676.334 447.267C680.448 447.949 685.176 448.911 690.087 450.193C695.175 451.508 700.156 453.201 704.987 455.257C711.137 457.878 716.443 462.117 720.327 467.513C723.981 472.619 726.268 478.558 726.975 484.775C727.716 490.953 726.84 497.217 724.433 502.965C721.853 509.035 717.603 514.266 712.167 518.066C707.201 521.551 701.71 524.239 695.896 526.031C690.108 527.8 684.137 528.92 678.096 529.368C671.982 529.831 665.844 529.892 659.723 529.549C653.606 529.253 647.54 528.669 641.69 528.053L623.773 526.154L605.857 524.255L587.941 522.365L570.066 520.466C566.692 520.112 563.16 519.899 559.562 519.71C555.964 519.52 552.299 519.348 548.651 519.077C545.003 518.805 541.388 518.419 537.848 517.802C534.396 517.226 531.008 516.329 527.726 515.123C521.917 512.881 516.787 509.201 512.827 504.437C508.789 499.545 505.582 494.037 503.328 488.128C500.965 482.067 499.168 475.805 497.96 469.42C496.817 463.504 495.984 457.534 495.467 451.533L492.974 427.818L490.531 404.103L488.038 380.389L485.595 356.674C485.021 355.951 484.448 355.186 483.883 354.405C483.318 353.624 482.736 352.802 482.171 351.939C481.606 351.076 481.049 350.221 480.509 349.325C479.969 348.429 479.404 347.492 478.847 346.539C477.866 344.796 476.975 343.067 476.171 341.352C475.34 339.642 474.642 337.941 473.994 336.272C473.346 334.603 472.772 332.984 472.257 331.34C471.742 329.696 471.302 328.142 470.919 326.597C470.329 324.271 469.731 321.953 469.099 319.643C468.468 317.333 467.828 315.023 467.155 312.722C466.482 310.42 465.784 308.127 465.061 305.842C464.338 303.556 463.59 301.279 462.809 299.011C462.46 298.008 462.161 297.071 461.911 296.208C461.662 295.345 461.454 294.564 461.296 293.857C461.159 293.247 461.056 292.629 460.989 292.007C460.935 291.573 460.935 291.134 460.989 290.7C461.062 290.238 461.182 289.783 461.346 289.344C461.475 289.004 461.637 288.676 461.828 288.366C461.952 288.159 462.091 287.961 462.244 287.774L462.427 287.568C462.628 287.382 462.845 287.211 463.075 287.059C463.288 286.927 463.51 286.809 463.739 286.705C463.94 286.621 464.146 286.547 464.354 286.483C464.532 286.429 464.712 286.385 464.895 286.352C465.212 286.197 465.551 286.092 465.9 286.04C466.776 285.904 467.672 286.006 468.493 286.335C469.889 286.924 471.102 287.869 472.008 289.073C473.641 291.197 474.918 293.567 475.789 296.093C475.789 296.093 476.204 297.202 476.927 298.748C477.78 300.587 478.792 302.35 479.952 304.017C481.207 305.768 482.67 307.305 484.249 307.905C485.827 308.505 487.523 308.225 489.235 306.368C489.639 305.927 489.998 305.448 490.307 304.937C490.612 304.43 490.871 303.896 491.079 303.343C491.292 302.785 491.456 302.21 491.57 301.625C491.679 301.039 491.743 300.445 491.761 299.849L491.993 291.974L492.218 284.108L492.451 276.241L492.675 268.367C492.675 268.227 492.675 268.062 492.675 267.882C492.675 267.701 492.675 267.512 492.675 267.306C492.675 267.101 492.675 266.879 492.675 266.64C492.675 266.402 492.675 266.155 492.675 265.901C492.716 264.98 492.758 264.125 492.824 263.336C492.871 262.61 492.963 261.888 493.099 261.174C493.206 260.557 493.391 259.955 493.647 259.382C493.879 258.85 494.206 258.363 494.611 257.944C494.777 257.767 494.958 257.605 495.151 257.459C495.456 257.23 495.785 257.034 496.132 256.875C496.609 256.648 497.111 256.477 497.628 256.365C498.31 256.22 499.007 256.145 499.705 256.143C499.511 254.732 499.486 253.303 499.63 251.885C499.758 250.64 500.057 249.418 500.52 248.252C500.906 247.248 501.469 246.318 502.182 245.507C502.819 244.782 503.623 244.218 504.525 243.863C504.739 243.783 504.959 243.717 505.181 243.665C505.454 243.596 505.732 243.549 506.012 243.526C506.378 243.497 506.744 243.497 507.109 243.526C507.555 243.566 507.997 243.64 508.431 243.748C508.618 243.193 508.899 242.673 509.262 242.211C509.63 241.767 510.064 241.382 510.55 241.068C511.533 240.433 512.704 240.144 513.874 240.246C514.471 240.303 515.054 240.464 515.594 240.723C516.673 241.216 517.552 242.056 518.087 243.107C518.358 243.64 518.535 244.216 518.61 244.808V246.649V248.491V250.324V252.165C518.938 252.075 519.276 252.025 519.616 252.017C520.408 251.98 521.199 252.124 521.926 252.436C522.976 252.929 523.846 253.73 524.419 254.73C525.369 256.404 525.936 258.265 526.081 260.179C526.231 261.454 526.38 262.728 526.522 263.994C526.663 265.259 526.812 266.542 526.962 267.816C527.112 269.09 527.269 270.364 527.436 271.63C527.602 272.896 527.776 274.17 527.959 275.436L530.178 288.358L532.081 301.238L533.992 314.119L535.895 327C536.194 329.03 536.527 331.044 536.901 333.058C537.275 335.072 537.674 337.078 538.114 339.075C538.554 341.072 539.036 343.07 539.543 345.051C540.05 347.032 540.599 349.005 541.205 350.969L547.853 373.435L554.501 395.9L561.149 418.365L567.797 440.83L591.431 442.022L615.073 443.214L638.707 444.406L662.307 445.59Z" fill="#F2B3C1" stroke="black" stroke-width="3" stroke-miterlimit="10" stroke-linecap="round"/>
<path d="M518.918 252.206C519.001 254.754 519.092 257.302 519.176 259.859C519.259 262.415 519.35 264.955 519.433 267.512C519.516 270.068 519.608 272.608 519.691 275.164C519.774 277.721 519.865 280.261 519.957 282.817" stroke="black" stroke-width="3" stroke-miterlimit="10" stroke-linecap="round"/>
<path d="M508.63 243.764C508.796 247.09 508.965 250.42 509.137 253.751C509.309 257.083 509.478 260.412 509.644 263.739L510.143 273.726C510.32 277.058 510.489 280.387 510.65 283.713" stroke="black" stroke-width="3" stroke-miterlimit="10" stroke-linecap="round"/>
<path d="M499.971 256.965C500.088 259.333 500.201 261.695 500.312 264.051C500.423 266.407 500.536 268.769 500.653 271.137C500.769 273.496 500.885 275.863 500.993 278.222C501.101 280.581 501.226 282.949 501.334 285.308" stroke="black" stroke-width="3" stroke-miterlimit="10" stroke-linecap="round"/>
<path d="M742.731 355.926C738.861 359.053 735.451 362.7 732.601 366.76C729.907 370.573 727.783 374.751 726.294 379.164C724.886 383.373 724.159 387.776 724.142 392.209C724.12 396.534 724.874 400.828 726.369 404.893C727.507 407.968 729.071 410.872 731.014 413.524C732.703 415.828 734.637 417.947 736.781 419.845C738.525 421.394 740.387 422.809 742.349 424.078C744.011 425.155 745.457 425.919 746.404 426.412L747.46 425.59L748.415 424.875L749.246 424.234L749.961 423.683L751.158 422.755L752.296 421.859L753.127 421.193L753.459 420.93L753.675 421.234L754.166 421.949C754.349 422.22 754.54 422.508 754.714 422.771L755.088 423.338C755.483 423.97 755.785 424.653 755.986 425.369C756.166 426.017 756.285 426.68 756.343 427.35C756.369 427.859 756.369 428.369 756.343 428.878C756.343 429.273 756.343 429.528 756.293 429.577C756.129 430.867 755.677 432.105 754.972 433.202C754.349 434.167 753.585 435.034 752.703 435.775C752.01 436.367 751.265 436.895 750.476 437.353C750.086 437.58 749.684 437.786 749.271 437.97C748.52 438.294 747.738 438.542 746.936 438.71C746.235 438.853 745.524 438.939 744.809 438.964C744.213 438.987 743.616 438.97 743.022 438.915C742.499 438.866 742.05 438.792 741.709 438.726C741.368 438.66 741.119 438.586 740.77 438.488C740.378 438.371 739.992 438.234 739.615 438.077C739.167 437.891 738.729 437.682 738.302 437.452C737.82 437.183 737.357 436.884 736.914 436.556C736.542 436.281 736.187 435.985 735.85 435.668C735.558 435.386 735.281 435.09 735.019 434.78C734.77 434.493 734.546 434.213 734.355 433.958C734.164 433.704 734.006 433.449 733.873 433.235C733.092 433.506 732.211 433.786 731.313 434.057C730.416 434.328 729.385 434.583 728.313 434.813C727.241 435.043 726.111 435.257 724.906 435.43C723.701 435.602 722.413 435.734 721.125 435.816C719.604 435.915 718.158 435.931 716.779 435.89C715.4 435.849 714.095 435.759 712.873 435.619C711.652 435.479 710.505 435.307 709.458 435.109C708.411 434.912 707.447 434.706 706.583 434.485C707.436 435.504 708.317 436.6 709.225 437.773C710.123 438.948 711.037 440.197 711.951 441.529C712.865 442.861 713.796 444.266 714.702 445.754C715.607 447.242 716.513 448.82 717.394 450.472C718.549 452.651 719.563 454.78 720.46 456.859C721.358 458.939 722.122 460.969 722.829 462.876C723.535 464.783 724.084 466.674 724.574 468.425C725.064 470.176 725.48 471.844 725.812 473.357C727.831 472.855 730.191 472.181 732.784 471.277C735.673 470.3 738.501 469.152 741.252 467.841C744.42 466.307 747.474 464.555 750.393 462.597C753.7 460.387 756.819 457.913 759.717 455.199C760.913 454.081 762.875 452.248 765.143 449.749C767.839 446.8 770.287 443.638 772.464 440.296C775.151 436.182 777.335 431.767 778.971 427.144C780.845 421.827 781.857 416.251 781.971 410.622C781.971 410.03 781.971 408.978 781.921 407.597C781.871 406.216 781.713 404.449 781.431 402.427C780.713 397.391 779.342 392.467 777.351 387.778C776.885 386.693 776.104 384.959 774.941 382.846C773.539 380.297 771.959 377.847 770.212 375.514C767.988 372.564 765.484 369.83 762.733 367.352C759.534 364.446 755.987 361.94 752.171 359.888C751.224 359.378 750.31 358.918 749.421 358.499C748.532 358.08 747.684 357.726 746.928 357.397C746.172 357.069 745.365 356.789 744.667 356.575C743.969 356.362 743.313 356.074 742.731 355.926Z" fill="#D87D61" stroke="black" stroke-width="3" stroke-miterlimit="10" stroke-linecap="round"/>
<path d="M598.619 172.217C599.217 173.911 599.796 175.694 600.356 177.568C600.904 179.434 601.436 181.383 601.927 183.413C602.417 185.443 602.866 187.523 603.264 189.742C603.663 191.962 604.012 194.189 604.295 196.532C604.395 197.392 604.486 198.247 604.569 199.097C604.652 199.919 604.727 200.741 604.785 201.563C604.843 202.385 604.901 203.207 604.943 204.029C604.985 204.851 605.018 205.623 605.043 206.404" stroke="black" stroke-width="3" stroke-miterlimit="10" stroke-linecap="round"/>
<path d="M607.037 167.77C607.652 169.727 608.242 171.782 608.799 173.911C609.356 176.04 609.888 178.267 610.378 180.561C610.868 182.854 611.309 185.246 611.691 187.704C612.073 190.161 612.414 192.693 612.68 195.307C612.771 196.253 612.863 197.181 612.937 198.102C613.012 199.023 613.07 199.943 613.128 200.839C613.187 201.735 613.228 202.639 613.27 203.519C613.311 204.399 613.336 205.27 613.353 206.125" stroke="black" stroke-width="3" stroke-miterlimit="10" stroke-linecap="round"/>
<path d="M617.757 176.582C618.078 178.188 618.38 179.832 618.663 181.514C618.954 183.158 619.211 184.901 619.494 186.652C619.776 188.402 619.951 190.194 620.142 192.019C620.333 193.844 620.499 195.71 620.641 197.609C620.691 198.307 620.732 199.006 620.774 199.705C620.815 200.404 620.857 201.086 620.89 201.768C620.923 202.45 620.948 203.133 620.973 203.807C620.998 204.481 620.973 205.147 621.031 205.812" stroke="black" stroke-width="3" stroke-miterlimit="10" stroke-linecap="round"/>
<path d="M571.944 454.139L570.897 450.809L569.85 447.48L568.803 444.159L567.756 440.83" stroke="black" stroke-width="3" stroke-miterlimit="10" stroke-linecap="round"/>
<path d="M52.6438 410.408C51.921 410.817 51.2768 411.348 50.7409 411.978C49.6831 413.22 49.0799 414.778 49.029 416.401C49.0025 417.236 49.1206 418.07 49.378 418.867L60.4303 452.897L71.466 486.895L82.51 520.926L93.5623 554.949C93.8119 555.724 94.216 556.442 94.7506 557.061C95.5385 557.968 96.5796 558.624 97.7431 558.947C98.9067 559.27 100.141 559.246 101.291 558.878L102.446 558.516L103.601 558.146L104.756 557.776L105.911 557.406L93.795 520.088L81.6956 482.761L69.5713 445.434L57.4553 408.107C56.9983 408.287 56.5579 408.468 56.1257 408.657C55.6936 408.846 55.2947 409.035 54.8876 409.233C54.4804 409.43 54.0566 409.619 53.7242 409.816L52.6438 410.408Z" fill="#F6991A" stroke="black" stroke-width="3" stroke-miterlimit="10" stroke-linecap="round"/>
<path d="M153.619 172.932C152.026 172.464 150.319 172.56 148.791 173.204C148.042 173.519 147.351 173.955 146.746 174.494C146.122 175.045 145.6 175.699 145.201 176.426L127.974 207.834L110.731 239.243L93.4875 270.644L76.2276 302.052C75.834 302.767 75.5883 303.552 75.5047 304.362C75.3505 305.938 75.8212 307.512 76.8176 308.751C77.3334 309.385 77.9719 309.911 78.6957 310.297L79.7677 310.872L80.8397 311.448L81.9117 312.023L82.9837 312.607C89.2826 301.099 95.5788 289.61 101.872 278.14L120.761 243.674L139.608 209.207C145.907 197.699 152.203 186.21 158.497 174.741C158.065 174.543 157.666 174.363 157.209 174.19L155.945 173.705L154.741 173.286L153.619 172.932Z" fill="#F6991A" stroke="black" stroke-width="3" stroke-miterlimit="10" stroke-linecap="round"/>
<defs>
<linearGradient id="paint0_linear_2_52" x1="158.58" y1="641.883" x2="283.437" y2="641.883" gradientUnits="userSpaceOnUse">
<stop offset="0.2" stop-color="#FEC2D9"/>
<stop offset="0.54" stop-color="#E3DEDA"/>
<stop offset="0.86" stop-color="#C6FCDB"/>
</linearGradient>
<linearGradient id="paint1_linear_2_52" x1="675.869" y1="321.747" x2="726.26" y2="233.507" gradientUnits="userSpaceOnUse">
<stop offset="0.35" stop-color="#FEC2D9"/>
<stop offset="0.67" stop-color="#E3DEDA"/>
<stop offset="0.97" stop-color="#C6FCDB"/>
</linearGradient>
<linearGradient id="paint2_linear_2_52" x1="403.808" y1="226.395" x2="464.188" y2="165.362" gradientUnits="userSpaceOnUse">
<stop offset="0.22" stop-color="#A4C2FF"/>
<stop offset="0.46" stop-color="#B5DEED"/>
<stop offset="0.68" stop-color="#C6FCDB"/>
</linearGradient>
<linearGradient id="paint3_linear_2_52" x1="263.194" y1="84.6496" x2="325.259" y2="193.336" gradientUnits="userSpaceOnUse">
<stop offset="0.15" stop-color="#FEC2D9"/>
<stop offset="0.23" stop-color="#FDBCBD"/>
<stop offset="0.41" stop-color="#FAAC74"/>
<stop offset="0.6" stop-color="#F6991A"/>
<stop offset="1" stop-color="#F6C34C"/>
</linearGradient>
<linearGradient id="paint4_linear_2_52" x1="322.054" y1="548.734" x2="373.696" y2="639.148" gradientUnits="userSpaceOnUse">
<stop offset="0.12" stop-color="#FEC2D9"/>
<stop offset="0.71" stop-color="#A4C2FF"/>
</linearGradient>
<linearGradient id="paint5_linear_2_52" x1="725.355" y1="146.48" x2="760.393" y2="207.82" gradientUnits="userSpaceOnUse">
<stop offset="0.12" stop-color="#FEC2D9"/>
<stop offset="0.71" stop-color="#A4C2FF"/>
</linearGradient>
</defs>
</svg>
